<?xml version="1.0" encoding="UTF-8"?><svg xmlns="http://www.w3.org/2000/svg" width="100%" height="100%"><defs><font id="web" horiz-adv-x="985"><!--



NOTICE: This font software is the valuable property 
of Webtype LLC, The Font Bureau, Webtype and/or its 
suppliers and its use by you is covered under the terms 
of the Web Font license agreement between you and Webtype 
LLC. You may ONLY use this font software with the licensed 
web site. Except as specifically permitted by the license, 
you may not copy this font software. If you have any 
questions, please contact Webtype.com. 

For more information, please visit http://www.webtype.com/store/license/?id=23

Licensed to: www.merkurmarkt.at|www.merkurvinoweb.at|www.merkurhohermarkt.at|www.merkurmarkt-gewinnspiel.at|www.merkurmarkt-umfragen.at|eauto.energiefueroesterreich.at|rezeptvideo.merkurmarkt-gewinnspiele.at

Serial number: SH-1126
--><font-face font-family="" units-per-em="2048" panose-1="2 0 5 6 3 0 0 2 0 4" ascent="1872" descent="-432" alphabetic="0"/><missing-glyph horiz-adv-x="471"/><glyph unicode=" " horiz-adv-x="471"/><glyph unicode="!" horiz-adv-x="543" d="M399 745L360 430H182L143 745V1434H399V745ZM436 143Q436 109 423 79T387 27T334 -9T270 -23Q236 -23 206 -10T154 26T118 79T104 143Q104 177 117 207T153 259T206 295T270 309Q304 309 334 296T386 260T422 207T436 143Z"/><glyph unicode="&quot;" horiz-adv-x="965" d="M856 1434L791 764H627L561 1434H856ZM403 1434L338 764H174L109 1434H403Z"/><glyph unicode="#" horiz-adv-x="1352" d="M1260 287H1055V0H813V287H539V0H297V287H92V508H297V926H92V1147H297V1434H539V1147H813V1434H1055V1147H1260V926H1055V508H1260V287ZM813 508V926H539V508H813Z"/><glyph unicode="$" horiz-adv-x="965" d="M907 397Q907 325 888 263T831 152T741 68T618 14V-164H360V10Q260 35 184 93T49 223L223 399Q288 316 355 276T487 236Q568 236 607 277T647 391Q647 422 637 448T601 501T533 554T428 614Q348 656 285 697T177 790T110 906T86 1061Q86 1126 105 1184T159 1288T245 1368T360 1419V1597H618V1419Q699 1399 761 1351T879 1231L709 1071Q677 1106 652 1130T601 1170T547 1191T481 1198Q419 1198 383 1163T346 1073Q346 1041 356 1016T390 966T453 917T551 860Q644 810 711 766T821 670T886 553T907 397Z"/><glyph unicode="%" horiz-adv-x="1763" d="M709 1012Q709 910 688 827T624 686T521 597T379 565Q300 565 240 596T138 684T76 824T55 1008Q55 1111 76 1194T138 1335T241 1425T383 1456Q465 1456 526 1425T628 1336T689 1196T709 1012ZM1352 1434L616 0H410L1145 1434H1352ZM1708 424Q1708 322 1687 240T1623 99T1520 9T1378 -23Q1299 -23 1239 8T1138 96T1076 236T1055 420Q1055 523 1076 606T1138 747T1240 837T1382 868Q1464 868 1525 837T1627 748T1688 608T1708 424ZM500 1008Q500 1136 475 1204T381 1272Q312 1272 288 1206T264 1012Q264 884 289 816T383 748Q417 748 440 766T476 819T494 901T500 1008ZM1499 420Q1499 484 1494 533T1475 615T1438 666T1380 684Q1345 684 1323 668T1288 618T1269 537T1264 424Q1264 360 1269 311T1288 229T1324 178T1382 160Q1417 160 1439 178T1475 231T1494 313T1499 420Z"/><glyph unicode="&amp;" horiz-adv-x="1110" d="M1092 0H817L748 102Q686 42 612 10T455 -23Q357 -23 285 3T163 80T90 201T66 362Q66 485 122 582T297 764L248 838Q225 872 206 904T174 970T153 1038T145 1114Q145 1197 172 1260T249 1367T366 1433T516 1456Q571 1456 619 1449T711 1426T796 1389T879 1335L760 1126Q701 1171 642 1194T514 1217Q488 1217 468 1209T432 1186T409 1153T401 1112Q401 1088 405 1068T417 1029T438 989T469 942L745 522Q777 616 799 725L991 639Q974 545 949 462T889 307L1092 0ZM623 287L420 584Q388 558 366 532T331 479T313 425T307 371Q307 298 346 256T461 213Q509 213 549 232T623 287Z"/><glyph unicode="'" horiz-adv-x="522" d="M414 1434L348 764H174L109 1434H414Z"/><glyph unicode="(" horiz-adv-x="666" d="M600 -117L457 -225Q382 -154 316 -65T200 130T121 357T92 614Q92 753 119 875T196 1102T312 1298T457 1466L600 1358Q543 1290 498 1211T422 1041T373 846T356 625Q356 498 373 393T423 197T500 30T600 -117Z"/><glyph unicode=")" horiz-adv-x="666" d="M573 627Q573 488 546 366T470 139T354 -57T209 -225L66 -117Q179 20 244 200T309 616Q309 743 292 849T243 1045T166 1212T66 1358L209 1466Q284 1395 350 1306T465 1110T544 883T573 627Z"/><glyph unicode="*" horiz-adv-x="901" d="M850 909L752 741L528 891L549 623H352L371 895L145 743L51 909L311 1028L51 1147L145 1315L371 1163L352 1434H549L528 1165L752 1317L850 1149L586 1030L850 909Z"/><glyph unicode="+" horiz-adv-x="1051" d="M979 588H647V223H403V588H72V821H403V1186H647V821H979V588Z"/><glyph unicode="," horiz-adv-x="504" d="M420 301L268 -229H100L127 301H420Z"/><glyph unicode="-" horiz-adv-x="707" d="M614 618H92V868H614V618Z"/><glyph unicode="." horiz-adv-x="504" d="M422 147Q422 112 409 82T372 28T317 -9T252 -23Q217 -23 187 -10T133 27T96 81T82 147Q82 182 95 213T132 267T186 303T252 317Q286 317 317 304T371 267T408 213T422 147Z"/><glyph unicode="/" horiz-adv-x="829" d="M825 1618L260 -184H4L569 1618H825Z"/><glyph unicode="0" horiz-adv-x="1081" d="M993 719Q993 564 969 429T890 193T748 35T537 -23Q412 -23 325 34T184 191T106 425T82 715Q82 870 106 1005T186 1240T328 1398T541 1456Q665 1456 751 1399T891 1242T969 1008T993 719ZM733 715Q733 959 687 1082T537 1206Q433 1206 388 1085T342 719Q342 476 389 352T541 227Q643 227 688 349T733 715Z"/><glyph unicode="1" horiz-adv-x="645" d="M496 0H240V1067H45V1227Q98 1232 136 1250T202 1295T247 1358T276 1434H496V0Z"/><glyph unicode="2" horiz-adv-x="1065" d="M913 0H92Q95 109 109 198T147 362T207 499T287 615T390 717T514 815Q551 842 576 867T618 918T641 972T649 1032Q649 1117 608 1158T485 1200Q417 1200 362 1165T256 1071L96 1257Q169 1348 266 1402T496 1456Q589 1456 665 1431T795 1356T879 1235T909 1069Q909 994 892 933T843 821T769 727T674 645Q601 591 548 544T458 451T404 356T381 250H913V0Z"/><glyph unicode="3" horiz-adv-x="1040" d="M934 430Q934 325 903 241T813 99T669 9T475 -23Q331 -23 225 40T35 240L238 383Q267 341 295 312T353 264T415 237T483 229Q576 229 626 282T676 424Q676 478 659 517T612 582T539 619T446 631H348V879H449Q538 879 586 918T635 1034Q635 1069 626 1100T597 1153T545 1189T467 1202Q438 1202 413 1196T362 1176T313 1143T260 1096L86 1270Q125 1313 165 1347T251 1406T354 1443T483 1456Q576 1456 651 1429T781 1350T864 1227T893 1065Q893 1004 879 956T838 872T774 810T692 768Q739 755 782 729T860 661T914 563T934 430Z"/><glyph unicode="4" horiz-adv-x="1044" d="M993 293H846V0H608V293H45V496L573 1434H846V512H993V293ZM614 1098Q599 1056 574 1003T514 885L401 676Q390 655 378 633T353 589T328 547T305 510Q336 510 380 511T473 512H608V858Q608 897 608 930T609 991T611 1046T614 1098Z"/><glyph unicode="5" horiz-adv-x="1018" d="M936 483Q936 363 904 269T809 110T656 11T451 -23Q396 -23 342 -12T237 19T140 68T55 133L199 328Q236 300 268 281T331 251T394 234T463 229Q518 229 558 246T625 294T665 370T678 469Q678 577 633 629T510 682Q459 682 415 661T330 602L121 700L156 1434H862V1186H383L365 872Q384 884 405 894T450 911T503 922T567 926Q645 926 712 899T829 816T907 678T936 483Z"/><glyph unicode="6" horiz-adv-x="1049" d="M971 479Q971 357 938 264T846 106T705 10T522 -23Q427 -23 347 9T208 112T116 292T82 557Q82 741 124 899T254 1176T480 1368T809 1456V1200Q698 1194 617 1159T480 1070T390 951T338 817Q364 846 391 867T451 901T520 920T604 926Q675 926 741 898T858 813T940 674T971 479ZM721 463Q721 513 710 555T675 628T616 676T535 694Q482 694 444 676T380 627T344 555T332 469Q332 418 342 372T377 291T441 236T537 215Q584 215 618 235T676 289T710 368T721 463Z"/><glyph unicode="7" horiz-adv-x="940" d="M866 1178Q778 1063 714 937T608 666T546 356T526 0H281Q281 358 360 656T600 1196H55V1434H866V1178Z"/><glyph unicode="8" horiz-adv-x="1061" d="M979 428Q979 332 951 250T867 107T727 12T530 -23Q417 -23 333 11T193 106T110 249T82 428Q82 498 98 554T143 652T208 725T287 774Q256 790 229 816T182 878T149 956T137 1047Q137 1136 162 1211T236 1340T359 1425T530 1456Q627 1456 700 1426T823 1341T898 1211T924 1047Q924 999 913 957T881 880T834 819T774 774Q816 755 853 725T918 653T962 554T979 428ZM690 1049Q690 1085 682 1117T655 1173T606 1211T530 1225Q486 1225 456 1211T406 1173T379 1117T371 1049Q371 1013 381 981T411 924T461 886T530 872Q569 872 599 886T649 924T680 980T690 1049ZM733 428Q733 525 680 583T530 641Q433 641 381 583T328 428Q328 383 341 344T381 275T444 230T530 213Q578 213 615 229T679 275T719 343T733 428Z"/><glyph unicode="9" horiz-adv-x="1049" d="M967 877Q967 693 925 535T795 258T569 66T240 -23V233Q351 239 432 274T569 363T659 482T711 616Q685 587 657 567T597 533T528 514T444 508Q373 508 307 536T190 620T109 759T78 954Q78 1076 110 1170T202 1327T343 1423T526 1456Q620 1456 701 1424T841 1321T933 1141T967 877ZM717 965Q717 1016 707 1062T672 1143T608 1198T512 1219Q465 1219 431 1199T373 1145T339 1066T328 971Q328 921 339 879T374 805T432 757T514 739Q567 739 605 757T668 807T705 879T717 965Z"/><glyph unicode=":" horiz-adv-x="504" d="M422 928Q422 893 409 863T372 809T317 772T252 758Q217 758 187 771T133 808T96 862T82 928Q82 962 95 993T132 1047T186 1084T252 1098Q286 1098 317 1085T371 1048T408 993T422 928ZM422 147Q422 112 409 82T372 28T317 -9T252 -23Q217 -23 187 -10T133 27T96 81T82 147Q82 182 95 213T132 267T186 303T252 317Q286 317 317 304T371 267T408 213T422 147Z"/><glyph unicode=";" horiz-adv-x="504" d="M422 928Q422 893 409 863T372 809T317 772T252 758Q217 758 187 771T133 808T96 862T82 928Q82 962 95 993T132 1047T186 1084T252 1098Q286 1098 317 1085T371 1048T408 993T422 928ZM408 301L256 -229H88L115 301H408Z"/><glyph unicode="&lt;" horiz-adv-x="840" d="M723 57L86 608V801L723 1352V1026L334 707L723 385V57Z"/><glyph unicode="=" horiz-adv-x="1071" d="M948 815H123V1071H948V815ZM948 338H123V594H948V338Z"/><glyph unicode="&gt;" horiz-adv-x="840" d="M754 608L117 57V383L506 702L117 1024V1352L754 801V608Z"/><glyph unicode="?" horiz-adv-x="909" d="M850 1079Q850 1017 836 967T797 874T736 794T657 723Q625 697 602 669T563 605T540 527T532 430H291Q291 514 301 578T337 697T404 798T510 895Q548 926 572 969T596 1057Q596 1122 554 1163T424 1204Q358 1204 300 1167T188 1061L18 1223Q57 1277 101 1320T197 1393T312 1439T449 1456Q534 1456 607 1433T735 1364T819 1246T850 1079ZM578 143Q578 109 565 79T529 27T476 -9T412 -23Q378 -23 348 -10T296 26T260 79T246 143Q246 177 259 207T295 259T348 295T412 309Q446 309 476 296T528 260T564 207T578 143Z"/><glyph unicode="@" horiz-adv-x="1303" d="M1221 737Q1221 642 1209 564T1169 430T1094 342T979 311Q949 311 923 320T876 345T838 379T813 420Q797 396 774 375T724 338T668 313T610 303Q562 303 517 320T437 374T380 466T358 598Q358 668 378 719T432 805T510 855T602 872Q642 872 680 861T750 834V913Q750 967 722 990T633 1014Q595 1014 559 1002T479 954L418 1081Q472 1123 530 1142T645 1161Q772 1161 840 1098T909 901V545Q909 494 925 462T985 430Q1016 430 1038 447T1075 501T1097 598T1104 741Q1104 883 1071 994T977 1181T833 1297T651 1337Q549 1337 466 1293T325 1169T235 975T203 721Q203 581 235 466T326 269T468 141T655 96Q706 96 756 106T862 147L907 51Q871 28 839 14T777 -9T716 -20T651 -23Q528 -23 424 29T244 178T125 412T82 717Q82 885 125 1021T244 1254T424 1403T651 1456Q777 1456 882 1405T1062 1259T1179 1032T1221 737ZM750 555V674Q730 697 697 712T618 727Q565 727 543 692T520 602Q520 570 524 543T541 497T574 466T627 455Q665 455 698 482T750 555Z"/><glyph unicode="A" horiz-adv-x="1098" d="M1040 0H776L709 299H387L319 0H57L424 1434H674L1040 0ZM653 539L614 709Q605 750 595 799T576 897T559 987T547 1057Q543 1029 536 988T520 901T501 805T481 713L442 539H653Z"/><glyph unicode="B" horiz-adv-x="1051" d="M981 444Q981 223 859 112T506 0H133V1434H520Q618 1434 697 1408T831 1332T916 1211T946 1051Q946 1006 935 963T901 884T846 818T770 770Q813 753 851 725T918 657T964 563T981 444ZM692 1040Q692 1114 654 1156T522 1198H383V885H528Q575 885 606 897T657 931T684 981T692 1040ZM727 438Q727 551 676 603T512 655H383V236H520Q575 236 614 251T678 292T715 356T727 438Z"/><glyph unicode="C" horiz-adv-x="1024" d="M958 344Q933 256 897 188T810 73T694 2T547 -23Q428 -23 341 34T196 191T110 425T82 715Q82 870 110 1005T197 1240T343 1398T551 1456Q642 1456 709 1429T824 1353T903 1238T956 1094L717 1016Q703 1065 688 1100T654 1157T608 1189T547 1200Q496 1200 458 1168T394 1074T357 923T344 719Q344 605 357 515T395 362T460 266T551 233Q584 233 609 243T657 277T698 340T737 438L958 344Z"/><glyph unicode="D" horiz-adv-x="1085" d="M1004 719Q1004 530 965 394T853 171T679 42T451 0H133V1434H457Q586 1434 687 1393T859 1266T967 1044T1004 719ZM741 715Q741 814 729 899T685 1048T598 1148T457 1184H389V250H457Q543 250 598 285T685 383T729 531T741 715Z"/><glyph unicode="E" horiz-adv-x="975" d="M887 0H133V1434H868V1188H389V885H711V643H389V246H887V0Z"/><glyph unicode="F" horiz-adv-x="950" d="M889 1186H389V868H725V621H389V0H133V1434H889V1186Z"/><glyph unicode="G" horiz-adv-x="1102" d="M1012 518Q1012 389 983 289T897 119T754 13T557 -23Q432 -23 342 34T194 191T109 425T82 715Q82 870 110 1005T196 1240T345 1398T561 1456Q724 1456 837 1368T997 1094L758 1016Q730 1117 680 1158T557 1200Q499 1200 459 1168T393 1074T356 923T344 719Q344 605 356 515T395 362T462 266T561 233Q619 233 658 248T721 298T754 388T764 524H559V764H1012V518Z"/><glyph unicode="H" horiz-adv-x="1106" d="M973 0H717V618H389V0H133V1434H389V868H717V1434H973V0Z"/><glyph unicode="I" horiz-adv-x="543" d="M399 0H143V1434H399V0Z"/><glyph unicode="J" horiz-adv-x="983" d="M856 553Q856 418 834 311T763 130T634 17T440 -23Q353 -23 284 5T163 88T81 221T37 401L281 475Q286 421 297 376T329 299T377 249T446 231Q486 231 515 246T563 298T591 395T600 545V1434H856V553Z"/><glyph unicode="K" horiz-adv-x="1073" d="M1036 0H750L518 616L389 385V0H133V1434H389V1010Q389 947 388 893T385 791Q396 813 409 840T438 896T468 955T498 1012L721 1434H993L688 897L1036 0Z"/><glyph unicode="L" horiz-adv-x="907" d="M838 0H133V1434H389V250H838V0Z"/><glyph unicode="M" horiz-adv-x="1311" d="M1178 0H944V463Q944 591 945 704T948 897Q937 859 923 811T893 707T858 592T819 471L653 -37L487 471Q467 532 449 591T414 706T383 810T358 897Q360 817 361 704T362 463V0H133V1434H391L561 903Q577 853 592 806T620 717T642 640T657 580Q663 607 673 642T696 720T724 808T754 903L924 1434H1178V0Z"/><glyph unicode="N" horiz-adv-x="1114" d="M981 0H735L471 639Q457 673 442 710T413 786T385 861T362 930Q363 897 364 855T365 768T366 681T367 604V0H133V1434H391L643 805Q656 773 671 734T702 654T732 575T756 506Q755 539 754 582T752 672T749 762T748 840V1434H981V0Z"/><glyph unicode="O" horiz-adv-x="1116" d="M1034 719Q1034 564 1006 429T920 193T772 35T557 -23Q432 -23 342 34T194 191T109 425T82 715Q82 870 110 1005T196 1240T345 1398T561 1456Q685 1456 774 1399T922 1242T1007 1008T1034 719ZM772 715Q772 829 760 919T722 1072T655 1167T557 1200Q499 1200 459 1168T393 1074T356 923T344 719Q344 605 356 515T395 362T462 266T561 233Q618 233 658 265T723 359T760 511T772 715Z"/><glyph unicode="P" horiz-adv-x="1020" d="M971 977Q971 861 933 774T829 630T680 543T504 514H389V0H133V1434H514Q616 1434 700 1405T844 1319T938 1176T971 977ZM715 973Q715 1018 705 1056T670 1123T607 1168T512 1184H389V764H516Q615 764 665 819T715 973Z"/><glyph unicode="Q" horiz-adv-x="1116" d="M1034 719Q1034 541 991 394T868 143L969 -23L795 -129L711 12Q674 -5 636 -14T557 -23Q432 -23 342 34T194 191T109 425T82 715Q82 870 110 1005T196 1240T345 1398T561 1456Q685 1456 774 1399T922 1242T1007 1008T1034 719ZM772 715Q772 829 760 919T722 1072T655 1167T557 1200Q499 1200 459 1168T393 1074T356 923T344 719Q344 605 356 512T395 354T462 253T561 217Q567 217 573 217T586 219L483 389L657 496L735 365Q754 423 763 508T772 715Z"/><glyph unicode="R" horiz-adv-x="1044" d="M975 0H696L473 545H389V0H133V1434H514Q619 1434 703 1406T847 1322T939 1182T971 987Q971 912 953 851T902 741T826 657T729 596L975 0ZM715 983Q715 1080 666 1132T502 1184H389V784H516Q715 784 715 983Z"/><glyph unicode="S" horiz-adv-x="965" d="M907 387Q907 298 877 223T792 93T657 8T477 -23Q404 -23 342 -5T227 44T130 116T49 203L223 389Q288 306 355 266T487 225Q568 225 607 267T647 381Q647 412 637 440T601 496T533 553T428 614Q348 656 285 699T177 795T110 915T86 1071Q86 1152 115 1222T196 1344T323 1426T487 1456Q554 1456 609 1443T711 1403T799 1339T879 1251L709 1081Q677 1117 652 1141T601 1180T547 1201T481 1208Q419 1208 383 1173T346 1083Q346 1051 356 1024T390 971T453 918T551 860Q644 810 711 764T821 665T886 545T907 387Z"/><glyph unicode="T" horiz-adv-x="952" d="M901 1188H604V0H348V1188H51V1434H901V1188Z"/><glyph unicode="U" horiz-adv-x="1106" d="M979 573Q979 433 957 323T884 136T753 18T553 -23Q439 -23 358 19T226 139T151 326T127 569V1434H383V569Q383 476 393 412T425 308T478 249T555 231Q600 231 631 249T683 307T713 412T723 569V1434H979V573Z"/><glyph unicode="V" horiz-adv-x="1049" d="M993 1434L651 0H401L55 1434H319L459 741Q466 701 476 648T497 543T515 446T526 377Q529 401 537 446T555 544T575 650T594 741L731 1434H993Z"/><glyph unicode="W" horiz-adv-x="1350" d="M1309 1434L1077 0H856L735 602Q714 707 699 797T672 963Q661 887 646 797T608 602L487 0H272L41 1434H283L352 899Q358 860 364 806T376 694T387 584T397 494Q402 531 410 584T428 694T447 805T465 899L569 1434H780L885 899Q892 860 902 806T922 694T940 584T954 494Q958 531 963 584T975 694T987 805T999 899L1069 1434H1309Z"/><glyph unicode="X" horiz-adv-x="1053" d="M1008 0H731L612 270Q601 294 590 323T567 382T545 440T526 489Q519 468 509 440T487 382T463 323T440 270L322 0H45L387 735L63 1434H340L440 1204Q451 1180 463 1151T487 1092T509 1034T526 985Q534 1006 544 1034T566 1092T589 1151T612 1204L713 1434H989L664 737L1008 0Z"/><glyph unicode="Y" horiz-adv-x="1065" d="M1030 1434L659 541V0H403V537L35 1434H317L428 1143Q446 1096 463 1048T494 955T519 872T535 809Q540 834 551 873T576 957T607 1050T641 1143L752 1434H1030Z"/><glyph unicode="Z" horiz-adv-x="961" d="M858 0H76V227L492 1026Q519 1080 545 1124T594 1206Q556 1204 511 1203T412 1202H111V1434H858V1206L446 408Q419 354 393 309T344 227Q382 229 427 230T526 231H858V0Z"/><glyph unicode="[" horiz-adv-x="748" d="M639 -225H154V1434H639V1229H406V-20H639V-225Z"/><glyph unicode="\" horiz-adv-x="829" d="M825 -184H569L4 1618H260L825 -184Z"/><glyph unicode="]" horiz-adv-x="748" d="M594 -225H109V-20H342V1229H109V1434H594V-225Z"/><glyph unicode="^" horiz-adv-x="950" d="M889 782H639L473 1184L307 782H61L354 1434H596L889 782Z"/><glyph unicode="_" horiz-adv-x="778" d="M778 -362H0V-147H778V-362Z"/><glyph unicode="`" horiz-adv-x="819" d="M629 1219H430L133 1546H451L629 1219Z"/><glyph unicode="a" horiz-adv-x="909" d="M807 0H565V74Q528 27 477 2T373 -23Q302 -23 244 3T143 78T78 196T55 352Q55 434 80 500T149 613T253 685T385 711Q420 711 446 708T492 700T530 687T565 668V750Q565 778 559 802T537 845T497 873T436 883Q402 883 374 879T319 867T269 847T219 817L121 993Q195 1044 274 1071T453 1098Q546 1098 613 1075T723 1007T786 895T807 739V0ZM565 283V455Q536 479 505 492T418 506Q392 506 371 495T334 465T310 418T301 356Q301 278 332 236T424 193Q467 193 504 218T565 283Z"/><glyph unicode="b" horiz-adv-x="950" d="M874 539Q874 416 855 313T796 135T692 19T541 -23Q487 -23 438 -1T354 59V0H113V1372L354 1493V1001Q395 1045 448 1071T561 1098Q712 1098 793 961T874 539ZM629 530Q629 618 624 682T604 789T566 851T504 872Q481 872 459 864T418 843T382 814T354 782V295Q366 277 382 261T417 232T459 211T508 203Q540 203 563 219T600 273T622 374T629 530Z"/><glyph unicode="c" horiz-adv-x="881" d="M817 854L623 723Q595 789 560 828T471 868Q430 868 401 845T353 779T326 675T317 539Q317 464 326 403T356 298T406 231T479 207Q505 207 528 219T570 252T606 302T635 365L813 236Q789 180 757 133T684 51T591 -3T477 -23Q388 -23 314 13T186 119T102 294T72 535Q72 671 102 776T186 952T314 1061T475 1098Q600 1098 684 1037T817 854Z"/><glyph unicode="d" horiz-adv-x="950" d="M838 0H596V74Q556 30 502 4T389 -23Q238 -23 157 115T76 537Q76 660 95 763T154 940T258 1056T410 1098Q464 1098 512 1076T596 1016V1372L838 1493V0ZM596 293V780Q584 798 568 814T533 843T490 864T442 872Q410 872 387 856T350 802T329 702T322 545Q322 456 327 392T346 285T384 223T446 203Q468 203 490 211T532 232T568 261T596 293Z"/><glyph unicode="e" horiz-adv-x="934" d="M862 537Q862 515 861 492T858 446H315Q319 384 333 339T369 265T422 221T487 207Q519 207 543 213T586 230T621 259T655 301L827 172Q767 73 679 25T483 -23Q383 -23 307 18T178 132T99 309T72 537Q72 672 101 776T183 952T309 1061T469 1098Q570 1098 644 1052T766 928T838 749T862 537ZM621 645Q616 694 606 737T578 812T533 862T467 881Q334 881 315 645H621Z"/><glyph unicode="f" horiz-adv-x="645" d="M614 1247Q591 1258 566 1263T506 1268Q455 1268 434 1245T412 1163V1075H584V846H412V0H170V846H61V1075H170V1204Q170 1279 190 1332T246 1420T330 1471T432 1487Q495 1487 537 1480T614 1456V1247Z"/><glyph unicode="g" horiz-adv-x="950" d="M838 111Q838 -10 817 -97T744 -244T601 -340T373 -395L307 -215Q370 -203 416 -191T494 -163T546 -126T577 -77T592 -12T596 74Q556 30 502 4T389 -23Q238 -23 157 115T76 537Q76 660 95 763T154 940T258 1056T410 1098Q464 1098 512 1076T596 1016V1075H838V111ZM596 293V780Q584 798 568 814T533 843T490 864T442 872Q410 872 387 856T350 802T329 702T322 545Q322 456 327 392T346 285T384 223T446 203Q468 203 490 211T532 232T568 261T596 293Z"/><glyph unicode="h" horiz-adv-x="944" d="M842 0H600V696Q600 746 596 779T581 833T550 863T498 872Q478 872 457 864T417 843T381 814T354 782V0H113V1372L354 1493V1001Q395 1045 445 1071T555 1098Q641 1098 696 1072T784 996T829 872T842 705V0Z"/><glyph unicode="i" horiz-adv-x="487" d="M397 1333Q397 1301 385 1274T352 1225T303 1192T244 1180Q212 1180 184 1192T135 1225T102 1273T90 1333Q90 1364 102 1392T135 1441T184 1474T244 1487Q275 1487 303 1475T352 1441T385 1392T397 1333ZM365 0H123V1075H365V0Z"/><glyph unicode="j" horiz-adv-x="487" d="M397 1333Q397 1301 385 1274T352 1225T303 1192T244 1180Q212 1180 184 1192T135 1225T102 1273T90 1333Q90 1364 102 1392T135 1441T184 1474T244 1487Q275 1487 303 1475T352 1441T385 1392T397 1333ZM365 68Q365 -51 348 -131T286 -263T163 -345T-37 -395L-104 -211Q-28 -194 17 -176T86 -128T116 -55T123 57V1075H365V68Z"/><glyph unicode="k" horiz-adv-x="907" d="M862 0H610L451 494L354 336V0H113V1372L354 1493V819Q354 797 354 779T353 744T353 708T352 668Q371 708 393 749T434 821L584 1075H850L616 725L862 0Z"/><glyph unicode="l" horiz-adv-x="487" d="M365 0H123V1372L365 1493V0Z"/><glyph unicode="m" horiz-adv-x="1399" d="M1296 0H1055V696Q1055 746 1052 779T1038 833T1009 863T961 872Q941 872 922 864T884 843T851 814T825 782V0H584V696Q584 746 581 779T567 833T538 863T489 872Q470 872 451 864T413 843T380 814T354 782V0H113V1075H354V1001Q395 1045 444 1071T547 1098Q645 1098 699 1066T782 979Q804 1003 829 1024T883 1062T945 1088T1018 1098Q1104 1098 1158 1072T1243 996T1285 872T1296 705V0Z"/><glyph unicode="n" horiz-adv-x="944" d="M842 0H600V696Q600 746 596 779T581 833T550 863T498 872Q478 872 457 864T417 843T381 814T354 782V0H113V1075H354V1001Q395 1045 445 1071T555 1098Q641 1098 696 1072T784 996T829 872T842 705V0Z"/><glyph unicode="o" horiz-adv-x="958" d="M887 539Q887 403 857 298T773 122T644 14T479 -23Q389 -23 314 13T185 119T102 294T72 535Q72 671 102 776T186 952T315 1061T481 1098Q571 1098 645 1062T774 954T857 779T887 539ZM641 535Q641 609 632 670T602 776T551 844T477 868Q433 868 403 845T353 779T326 675T317 539Q317 464 326 403T355 298T406 231T481 207Q524 207 554 233T604 303T632 407T641 535Z"/><glyph unicode="p" horiz-adv-x="950" d="M874 539Q874 416 855 313T796 135T692 19T541 -23Q487 -23 438 -1T354 59V-274L113 -395V1075H354V1001Q395 1045 448 1071T561 1098Q712 1098 793 961T874 539ZM629 530Q629 618 624 682T604 789T566 851T504 872Q481 872 459 864T418 843T382 814T354 782V295Q366 277 382 261T417 232T459 211T508 203Q540 203 563 219T600 273T622 374T629 530Z"/><glyph unicode="q" horiz-adv-x="950" d="M838 -274L596 -395V74Q556 30 502 4T389 -23Q238 -23 157 115T76 537Q76 660 95 763T154 940T258 1056T410 1098Q464 1098 512 1076T596 1016V1075H838V-274ZM596 293V780Q584 798 568 814T533 843T490 864T442 872Q410 872 387 856T350 802T329 702T322 545Q322 456 327 392T346 285T384 223T446 203Q468 203 490 211T532 232T568 261T596 293Z"/><glyph unicode="r" horiz-adv-x="745" d="M721 1042L651 807Q620 832 587 846T510 860Q462 860 424 837T354 768V0H113V1075H354V1001Q369 1019 390 1036T437 1067T492 1089T551 1098Q605 1098 644 1084T721 1042Z"/><glyph unicode="s" horiz-adv-x="848" d="M764 315Q764 232 738 169T665 63T553 -1T412 -23Q312 -23 230 5T72 94L158 301Q226 253 288 230T416 207Q473 207 500 231T528 295Q528 317 519 334T488 370T428 408T334 457Q275 485 232 517T159 588T115 677T100 788Q100 860 125 917T194 1015T299 1076T432 1098Q517 1098 590 1074T735 999L651 803Q616 821 588 833T533 853T481 864T426 868Q384 868 360 848T336 795Q336 777 343 762T371 730T426 693T516 647Q575 618 621 587T699 516T747 427T764 315Z"/><glyph unicode="t" horiz-adv-x="748" d="M657 258L629 25Q588 3 543 -10T444 -23Q379 -23 330 -5T249 54T200 156T184 307V846H51V1075H184V1372L426 1493V1075H643V846H426V313Q426 253 448 230T514 207Q549 207 585 219T657 258Z"/><glyph unicode="u" horiz-adv-x="944" d="M831 0H590V74Q550 30 499 4T389 -23Q303 -23 248 3T160 79T115 203T102 371V1075H344V379Q344 329 348 296T363 242T394 212T446 203Q466 203 487 211T527 232T563 261T590 293V1075H831V0Z"/><glyph unicode="v" horiz-adv-x="893" d="M852 1075L578 0H315L41 1075H283L383 610Q390 577 399 529T418 432T436 341T449 276Q453 298 461 341T479 434T498 532T514 610L614 1075H852Z"/><glyph unicode="w" horiz-adv-x="1196" d="M1155 1075L918 0H737L659 373Q651 409 642 456T624 550T608 640T596 711Q592 683 585 641T568 550T550 454T532 369L459 0H279L41 1075H262L317 760Q324 721 332 672T348 575T362 483T373 412Q377 439 385 482T403 575T423 672T442 758L512 1075H684L754 758Q762 721 772 673T792 575T810 483T823 412Q827 439 833 482T848 574T864 672T879 760L934 1075H1155Z"/><glyph unicode="x" horiz-adv-x="913" d="M866 0H608L528 172Q507 220 490 265T455 356Q438 311 421 266T381 172L301 0H47L334 557L68 1075H326L385 944Q407 896 425 850T459 760Q476 805 493 850T532 944L592 1075H846L580 557L866 0Z"/><glyph unicode="y" horiz-adv-x="926" d="M885 1075L475 -379H252L360 18L41 1075H295L395 674Q405 634 417 584T440 484T460 393T473 328Q477 351 485 393T503 485T523 584T543 672L633 1075H885Z"/><glyph unicode="z" horiz-adv-x="850" d="M758 0H78V211L362 641Q404 704 444 761T516 862Q468 860 412 859T289 858H109V1075H758V864L479 434Q437 369 398 314T324 213Q373 215 430 216T553 217H758V0Z"/><glyph unicode="{" horiz-adv-x="768" d="M686 -225Q558 -225 470 -198T325 -116T244 19T219 207V360Q219 435 188 468T96 502H51V715H96Q156 715 187 748T219 856V1012Q219 1118 244 1199T325 1334T469 1416T686 1444V1278Q617 1270 577 1251T515 1200T487 1122T481 1012V928Q481 845 470 790T434 700T374 644T287 608Q337 593 373 573T434 517T469 427T481 289V207Q481 144 487 98T514 19T576 -33T686 -59V-225Z"/><glyph unicode="|" horiz-adv-x="528" d="M377 -379H152V1638H377V-379Z"/><glyph unicode="}" horiz-adv-x="768" d="M717 504H672Q612 504 581 471T549 362V207Q549 100 524 19T443 -116T298 -197T82 -225V-59Q151 -52 191 -33T253 18T281 97T287 207V291Q287 374 298 428T334 518T394 574T481 610Q431 625 395 645T334 701T299 792T287 930V1012Q287 1075 281 1121T254 1200T192 1251T82 1278V1444Q209 1444 298 1417T443 1335T524 1199T549 1012V858Q549 784 580 751T672 717H717V504Z"/><glyph unicode="~" horiz-adv-x="1151" d="M1065 868Q1037 797 1006 744T938 654T855 599T752 580Q720 580 695 584T648 596T603 618T555 649Q522 671 497 687T452 712T416 726T385 731Q360 731 342 724T306 698T272 650T233 575L86 651Q114 722 145 776T213 866T296 921T399 940Q430 940 455 936T503 923T548 901T596 870Q655 830 696 809T764 788Q788 788 807 795T843 821T878 869T918 944L1065 868Z"/><glyph unicode=" " horiz-adv-x="236"/><glyph unicode="¡" horiz-adv-x="543" d="M438 1268Q438 1234 425 1204T389 1152T336 1116T272 1102Q238 1102 208 1115T156 1151T120 1204T106 1268Q106 1302 119 1332T155 1384T208 1420T272 1434Q306 1434 336 1421T388 1385T424 1332T438 1268ZM399 -23H143V666L182 981H360L399 666V-23Z"/><glyph unicode="¢" horiz-adv-x="881" d="M817 1044L623 920Q595 986 560 1025T471 1065Q430 1065 401 1041T353 973T326 866T317 729Q317 654 326 592T356 485T406 416T479 391Q505 391 528 403T570 436T606 486T635 549L813 426Q776 338 719 273T578 182V-23H334V195Q214 244 143 377T72 725Q72 832 90 919T143 1074T226 1188T334 1260V1456H578V1276Q661 1254 720 1196T817 1044Z"/><glyph unicode="£" horiz-adv-x="1001" d="M954 1303L821 1108Q762 1154 702 1181T571 1208Q500 1208 464 1173T428 1079Q428 1037 442 987T477 889Q503 832 518 774H750V563H532Q523 467 491 386T408 223H926V0H123V209Q163 254 192 296T243 380T275 468T291 563H123V774H266Q251 817 229 860Q206 907 190 969T174 1094Q174 1178 201 1245T277 1359T397 1431T555 1456Q675 1456 771 1416T954 1303Z"/><glyph unicode="¤" horiz-adv-x="1152" d="M1056 392L940 284L740 500Q668 452 572 452Q480 452 408 500L208 284L92 392L300 608Q272 648 262 686T252 780Q252 828 262 870T300 952L92 1168L208 1276L408 1060Q480 1108 572 1108Q668 1108 740 1060L944 1276L1060 1156L852 952Q880 912 890 872T900 780Q900 684 848 608L1056 392ZM748 780Q748 860 698 910T572 960Q496 960 448 910T400 780Q400 700 450 652T572 604Q652 604 700 652T748 780Z"/><glyph unicode="¥" horiz-adv-x="1016" d="M985 1434L627 506V449H842V229H627V0H387V229H172V449H387V502L31 1434H313L408 1143Q421 1103 436 1054T466 955T493 861T510 788Q516 818 528 862T554 954T584 1052T612 1143L707 1434H985Z"/><glyph unicode="¦" horiz-adv-x="640" d="M216 788V1636H424V788H216ZM216 -412V440H424V-412H216Z"/><glyph unicode="§" horiz-adv-x="1079" d="M989 535Q989 478 975 431T937 346T880 276T807 219Q856 174 879 122T903 -2Q903 -77 877 -138T800 -244T679 -312T520 -336Q420 -336 332 -305T160 -219L270 -20Q327 -58 390 -81T516 -104Q579 -104 612 -81T645 -12Q645 15 636 35T602 76T534 121T424 178Q336 221 273 261T170 349T110 453T90 586Q90 643 104 689T142 775T199 845T270 901Q222 946 199 998T176 1122Q176 1197 203 1258T279 1364T400 1432T559 1456Q659 1456 747 1425T920 1339L809 1141Q752 1178 689 1201T563 1225Q500 1225 467 1202T434 1133Q434 1106 443 1085T477 1044T544 999T655 942Q743 899 806 859T909 772T969 668T989 535ZM733 516Q733 556 723 586T687 642T618 695T510 754Q498 760 485 766T461 778Q404 746 375 705T346 604Q346 564 356 534T392 478T461 426T569 367Q582 360 594 354T618 342Q675 374 704 415T733 516Z"/><glyph unicode="¨" horiz-adv-x="819" d="M752 1364Q752 1335 740 1309T708 1262T662 1231T606 1219Q576 1219 550 1230T503 1262T471 1308T459 1364Q459 1394 470 1420T502 1467T549 1499T606 1511Q635 1511 661 1500T708 1468T740 1421T752 1364ZM360 1364Q360 1335 349 1309T317 1262T271 1231T215 1219Q185 1219 159 1230T112 1262T80 1308T68 1364Q68 1394 79 1420T111 1467T158 1499T215 1511Q244 1511 270 1500T317 1468T348 1421T360 1364Z"/><glyph unicode="©" horiz-adv-x="1323" d="M1221 717Q1221 549 1178 412T1059 179T879 30T651 -23Q528 -23 424 29T244 178T125 412T82 717Q82 885 125 1021T244 1254T424 1403T651 1456Q774 1456 878 1404T1059 1255T1178 1022T1221 717ZM1096 713Q1096 852 1065 967T975 1164T834 1292T651 1337Q549 1337 467 1293T327 1169T238 975T207 721Q207 581 238 466T328 269T469 141T655 96Q756 96 837 140T976 264T1065 459T1096 713ZM887 512Q858 412 803 359T655 305Q588 305 539 337T458 425T411 556T395 719Q395 806 411 881T459 1013T541 1102T657 1135Q709 1135 746 1120T811 1077T855 1012T885 930L750 887Q734 942 715 966T655 991Q597 991 570 920T543 721Q543 593 571 521T657 449Q676 449 690 454T717 473T740 509T762 563L887 512Z"/><glyph unicode="ª" horiz-adv-x="811" d="M694 567H500V627Q469 588 428 569T344 549Q286 549 239 570T157 630T105 725T86 852Q86 919 106 972T161 1064T246 1122T352 1143Q381 1143 402 1141T440 1134T471 1123T500 1108V1174Q500 1220 477 1251T395 1282Q340 1282 300 1270T219 1229L139 1370Q199 1412 263 1434T408 1456Q559 1456 626 1382T694 1165V567ZM500 795V934Q488 944 476 952T450 965T419 974T379 977Q339 977 312 944T285 856Q285 791 310 757T385 723Q420 723 450 743T500 795Z"/><glyph unicode="«" horiz-adv-x="1044" d="M973 0H731L455 537L731 1075H973L707 539L973 0ZM559 0H317L41 537L317 1075H559L293 539L559 0Z"/><glyph unicode="¬" horiz-adv-x="1536" d="M1116 352V728H212V920H1296V352H1116Z"/><glyph unicode="­" horiz-adv-x="707" d="M614 618H92V868H614V618Z"/><glyph unicode="®" horiz-adv-x="1323" d="M1221 717Q1221 549 1178 412T1059 179T879 30T651 -23Q528 -23 424 29T244 178T125 412T82 717Q82 885 125 1021T244 1254T424 1403T651 1456Q774 1456 878 1404T1059 1255T1178 1022T1221 717ZM1096 713Q1096 852 1065 967T975 1164T834 1292T651 1337Q549 1337 467 1293T327 1169T238 975T207 721Q207 581 238 466T328 269T469 141T655 96Q756 96 837 140T976 264T1065 459T1096 713ZM913 332H756L631 637H584V332H440V1135H655Q713 1135 760 1120T841 1073T893 994T911 885Q911 800 873 746T774 666L913 332ZM768 881Q768 936 740 964T647 993H584V770H655Q711 770 739 798T768 881Z"/><glyph unicode="¯" horiz-adv-x="819" d="M676 1249H143V1444H676V1249Z"/><glyph unicode="°" horiz-adv-x="866" d="M805 1087Q805 1007 777 939T698 820T579 742T432 713Q354 713 287 741T169 820T90 938T61 1087Q61 1164 90 1231T169 1348T286 1427T432 1456Q511 1456 579 1427T697 1348T776 1231T805 1087ZM614 1087Q614 1123 600 1156T561 1214T503 1253T432 1268Q395 1268 363 1254T306 1214T267 1156T252 1087Q252 1049 266 1015T305 956T362 916T432 901Q469 901 502 915T560 955T599 1015T614 1087Z"/><glyph unicode="±" horiz-adv-x="1536" d="M672 352V764H200V936H672V1352H864V936H1340V764H864V352H672ZM204 24V216H1336V24H204Z"/><glyph unicode="²" horiz-adv-x="896" d="M56 628V768L400 1108Q472 1176 512 1230T552 1352Q552 1404 506 1436T400 1468Q336 1468 276 1430T172 1348L64 1456Q124 1520 220 1570T428 1620Q568 1620 658 1540T748 1344Q748 1236 658 1134T492 976L268 788H776V628H56Z"/><glyph unicode="³" horiz-adv-x="896" d="M48 732L152 864Q216 816 284 796T424 776Q524 776 572 818T620 928Q620 1004 552 1040T384 1076H312V1204H372Q472 1204 530 1242T588 1336Q588 1400 536 1428T412 1456Q332 1456 272 1430T176 1384L88 1516Q176 1572 268 1596T448 1620Q596 1620 684 1556T772 1376Q772 1276 710 1222T548 1148Q664 1136 738 1080T812 904Q812 764 700 688T432 612Q300 612 206 646T48 732Z"/><glyph unicode="´" horiz-adv-x="819" d="M686 1546L389 1219H190L369 1546H686Z"/><glyph unicode="µ" horiz-adv-x="1408" d="M252 -424Q196 -424 168 -392T140 -280Q140 -200 144 -106T156 100Q164 200 168 256T172 328Q176 348 176 356T176 368V1176H368V320Q368 228 450 176T628 124Q760 124 858 190T1008 380V1176H1200V308L1220 0H1056L1020 176Q952 68 836 14T572 -40Q520 -40 444 -14T324 60Q324 -28 352 -112T380 -264Q380 -424 252 -424Z"/><glyph unicode="¶" horiz-adv-x="1270" d="M1120 -379H905V1237H774V-379H559V514H543Q441 514 357 543T212 631T119 776T86 975Q86 1091 124 1177T228 1320T377 1405T553 1434H1120V-379Z"/><glyph unicode="·" horiz-adv-x="504" d="M422 752Q422 717 409 686T372 632T317 596T252 582Q217 582 187 595T133 632T96 686T82 752Q82 786 95 817T132 871T186 908T252 922Q286 922 317 909T371 872T408 817T422 752Z"/><glyph unicode="¸" horiz-adv-x="819" d="M653 -217Q653 -263 637 -296T592 -352T524 -384T440 -395Q400 -395 368 -390T307 -376T254 -354T203 -322L246 -244Q292 -268 324 -282T397 -297Q451 -297 474 -278T498 -223Q498 -197 484 -182T444 -166Q424 -166 411 -170T383 -184L309 -156L352 25H469L444 -86Q458 -80 475 -77T518 -74Q577 -74 615 -110T653 -217Z"/><glyph unicode="¹" horiz-adv-x="768" d="M324 628V1424L144 1384V1528L392 1636H508V628H324Z"/><glyph unicode="º" horiz-adv-x="815" d="M737 1004Q737 893 713 809T646 666T542 579T408 549Q334 549 274 578T170 664T102 805T78 999Q78 1110 102 1195T170 1338T275 1426T410 1456Q483 1456 543 1427T646 1340T713 1198T737 1004ZM539 999Q539 1060 532 1110T508 1195T467 1250T406 1270Q370 1270 346 1251T306 1198T283 1114T276 1004Q276 942 283 893T307 808T349 754T410 735Q444 735 468 756T509 813T532 897T539 999Z"/><glyph unicode="»" horiz-adv-x="1044" d="M1004 539L727 0H485L752 537L485 1075H727L1004 539ZM590 539L313 0H72L338 537L72 1075H313L590 539Z"/><glyph unicode="¼" horiz-adv-x="1920" d="M368 0L1340 1524H1520L548 0H368ZM292 628V1424L112 1384V1528L360 1636H476V628H292ZM1540 0V220H1060V360L1512 980H1724V376H1844V220H1724V0H1540ZM1260 368H1540V768L1260 368Z"/><glyph unicode="½" horiz-adv-x="1920" d="M276 0L1248 1524H1428L456 0H276ZM268 628V1424L88 1384V1528L336 1636H452V628H268ZM1136 0V140L1480 480Q1552 548 1592 602T1632 724Q1632 776 1586 808T1480 840Q1416 840 1356 802T1252 720L1144 828Q1204 892 1300 942T1508 992Q1648 992 1738 912T1828 716Q1828 608 1738 506T1572 348L1348 160H1856V0H1136Z"/><glyph unicode="¾" horiz-adv-x="1920" d="M440 0L1412 1524H1592L620 0H440ZM48 732L152 864Q216 816 284 796T424 776Q524 776 572 818T620 928Q620 1004 552 1040T384 1076H312V1204H372Q472 1204 530 1242T588 1336Q588 1400 536 1428T412 1456Q332 1456 272 1430T176 1384L88 1516Q176 1572 268 1596T448 1620Q596 1620 684 1556T772 1376Q772 1276 710 1222T548 1148Q664 1136 738 1080T812 904Q812 764 700 688T432 612Q300 612 206 646T48 732ZM1564 0V220H1084V360L1536 980H1748V376H1868V220H1748V0H1564ZM1284 368H1564V768L1284 368Z"/><glyph unicode="¿" horiz-adv-x="909" d="M664 1290Q664 1256 651 1226T615 1174T562 1138T498 1124Q464 1124 434 1137T382 1173T346 1226T332 1290Q332 1324 345 1354T381 1406T434 1442T498 1456Q532 1456 562 1443T614 1407T650 1354T664 1290ZM891 211Q852 157 808 114T712 41T598 -6T461 -23Q375 -23 302 0T174 69T90 187T59 354Q59 416 73 466T112 560T173 639T252 711Q283 736 306 764T346 828T369 906T377 1004H618Q618 919 608 855T572 737T505 636T399 539Q361 508 337 464T313 377Q313 312 355 271T485 229Q551 229 609 267T721 373L891 211Z"/><glyph unicode="À" horiz-adv-x="1098" d="M1040 0H776L709 299H387L319 0H57L424 1434H674L1040 0ZM653 539L614 709Q605 750 595 799T576 897T559 987T547 1057Q543 1029 536 988T520 901T501 805T481 713L442 539H653ZM662 1526H463L166 1853H484L662 1526Z"/><glyph unicode="Á" horiz-adv-x="1098" d="M1040 0H776L709 299H387L319 0H57L424 1434H674L1040 0ZM653 539L614 709Q605 750 595 799T576 897T559 987T547 1057Q543 1029 536 988T520 901T501 805T481 713L442 539H653ZM922 1853L625 1526H426L605 1853H922Z"/><glyph unicode="Â" horiz-adv-x="1098" d="M1040 0H776L709 299H387L319 0H57L424 1434H674L1040 0ZM653 539L614 709Q605 750 595 799T576 897T559 987T547 1057Q543 1029 536 988T520 901T501 805T481 713L442 539H653ZM882 1516H702L545 1665L387 1516H211L434 1843H659L882 1516Z"/><glyph unicode="Ã" horiz-adv-x="1098" d="M1040 0H776L709 299H387L319 0H57L424 1434H674L1040 0ZM653 539L614 709Q605 750 595 799T576 897T559 987T547 1057Q543 1029 536 988T520 901T501 805T481 713L442 539H653ZM889 1786Q889 1724 875 1675T834 1591T770 1538T688 1519Q660 1519 639 1522T599 1533T559 1551T512 1577Q492 1589 479 1596T455 1608T437 1613T420 1614Q395 1614 383 1595T362 1526H205Q205 1587 219 1636T260 1720T324 1773T405 1792Q433 1792 454 1789T494 1778T534 1760T581 1734Q601 1722 614 1715T638 1704T656 1699T674 1698Q698 1698 710 1717T731 1786H889Z"/><glyph unicode="Ä" horiz-adv-x="1098" d="M1040 0H776L709 299H387L319 0H57L424 1434H674L1040 0ZM653 539L614 709Q605 750 595 799T576 897T559 987T547 1057Q543 1029 536 988T520 901T501 805T481 713L442 539H653ZM885 1671Q885 1642 873 1616T841 1569T795 1538T739 1526Q709 1526 683 1537T636 1569T604 1615T592 1671Q592 1701 603 1727T635 1774T682 1806T739 1818Q768 1818 794 1807T841 1775T873 1728T885 1671ZM493 1671Q493 1642 482 1616T450 1569T404 1538T348 1526Q318 1526 292 1537T245 1569T213 1615T201 1671Q201 1701 212 1727T244 1774T291 1806T348 1818Q377 1818 403 1807T450 1775T481 1728T493 1671Z"/><glyph unicode="Å" horiz-adv-x="1098" d="M1040 0H776L709 299H387L319 0H57L395 1321Q353 1353 329 1402T305 1511Q305 1563 323 1608T375 1685T452 1736T549 1755Q601 1755 645 1737T723 1686T774 1608T793 1511Q793 1451 769 1402T702 1321L1040 0ZM655 1511Q655 1534 647 1554T624 1588T591 1611T549 1620Q526 1620 507 1612T473 1589T451 1554T442 1511Q442 1488 450 1469T473 1435T506 1412T549 1403Q571 1403 590 1411T624 1434T646 1468T655 1511ZM653 539L614 709Q605 750 595 799T576 897T559 987T547 1057Q543 1029 536 988T520 901T501 805T481 713L442 539H653Z"/><glyph unicode="Æ" horiz-adv-x="1501" d="M1413 0H690V289H389L293 0H35L545 1434H1395V1196H934V881H1237V647H934V238H1413V0ZM692 1206Q684 1177 674 1145T653 1078T630 1010T608 946L467 522H690V965Q690 989 690 1019T690 1082T690 1147T692 1206Z"/><glyph unicode="Ç" horiz-adv-x="1024" d="M958 344Q934 259 899 193T817 80T709 7T571 -23L557 -86Q584 -74 631 -74Q690 -74 728 -110T766 -217Q766 -263 750 -296T705 -352T637 -384T553 -395Q513 -395 481 -390T420 -376T366 -354T315 -322L358 -244Q381 -256 400 -266T437 -282T472 -293T510 -297Q564 -297 587 -278T610 -223Q610 -197 596 -182T557 -166Q537 -166 524 -170T496 -184L422 -156L457 -12Q361 9 291 73T174 234T105 453T82 715Q82 870 110 1005T197 1240T343 1398T551 1456Q642 1456 709 1429T824 1353T903 1238T956 1094L717 1016Q703 1065 688 1100T654 1157T608 1189T547 1200Q496 1200 458 1168T394 1074T357 923T344 719Q344 605 357 515T395 362T460 266T551 233Q584 233 609 243T657 277T698 340T737 438L958 344Z"/><glyph unicode="È" horiz-adv-x="975" d="M887 0H133V1434H868V1188H389V885H711V643H389V246H887V0ZM607 1526H408L111 1853H429L607 1526Z"/><glyph unicode="É" horiz-adv-x="975" d="M887 0H133V1434H868V1188H389V885H711V643H389V246H887V0ZM856 1853L559 1526H360L539 1853H856Z"/><glyph unicode="Ê" horiz-adv-x="975" d="M887 0H133V1434H868V1188H389V885H711V643H389V246H887V0ZM829 1526H649L492 1675L334 1526H158L381 1853H606L829 1526Z"/><glyph unicode="Ë" horiz-adv-x="975" d="M887 0H133V1434H868V1188H389V885H711V643H389V246H887V0ZM830 1671Q830 1642 818 1616T786 1569T740 1538T684 1526Q654 1526 628 1537T581 1569T549 1615T537 1671Q537 1701 548 1727T580 1774T627 1806T684 1818Q713 1818 739 1807T786 1775T818 1728T830 1671ZM438 1671Q438 1642 427 1616T395 1569T349 1538T293 1526Q263 1526 237 1537T190 1569T158 1615T146 1671Q146 1701 157 1727T189 1774T236 1806T293 1818Q322 1818 348 1807T395 1775T426 1728T438 1671Z"/><glyph unicode="Ì" horiz-adv-x="543" d="M399 0H143V1434H399V0ZM386 1526H187L-110 1853H208L386 1526Z"/><glyph unicode="Í" horiz-adv-x="543" d="M399 0H143V1434H399V0ZM652 1853L355 1526H156L335 1853H652Z"/><glyph unicode="Î" horiz-adv-x="543" d="M399 0H143V1434H399V0ZM609 1512H429L272 1661L114 1512H-62L161 1839H386L609 1512Z"/><glyph unicode="Ï" horiz-adv-x="543" d="M399 0H143V1434H399V0ZM610 1671Q610 1642 598 1616T566 1569T520 1538T464 1526Q434 1526 408 1537T361 1569T329 1615T317 1671Q317 1701 328 1727T360 1774T407 1806T464 1818Q493 1818 519 1807T566 1775T598 1728T610 1671ZM218 1671Q218 1642 207 1616T175 1569T129 1538T73 1526Q43 1526 17 1537T-30 1569T-62 1615T-74 1671Q-74 1701 -63 1727T-31 1774T16 1806T73 1818Q102 1818 128 1807T175 1775T206 1728T218 1671Z"/><glyph unicode="Ð" horiz-adv-x="1116" d="M1034 719Q1034 530 995 394T884 171T709 42T481 0H164V633H61V862H164V1434H487Q616 1434 717 1393T889 1266T997 1044T1034 719ZM772 715Q772 814 760 899T716 1048T629 1148T487 1184H410V862H578V633H410V250H487Q573 250 628 285T716 383T760 531T772 715Z"/><glyph unicode="Ñ" horiz-adv-x="1114" d="M981 0H735L471 639Q457 673 442 710T413 786T385 861T362 930Q363 897 364 855T365 768T366 681T367 604V0H133V1434H391L643 805Q656 773 671 734T702 654T732 575T756 506Q755 539 754 582T752 672T749 762T748 840V1434H981V0ZM906 1786Q906 1724 892 1675T851 1591T787 1538T705 1519Q677 1519 656 1522T616 1533T576 1551T529 1577Q509 1589 496 1596T472 1608T454 1613T437 1614Q412 1614 400 1595T379 1526H222Q222 1587 236 1636T277 1720T341 1773T422 1792Q450 1792 471 1789T511 1778T551 1760T598 1734Q618 1722 631 1715T655 1704T673 1699T691 1698Q715 1698 727 1717T748 1786H906Z"/><glyph unicode="Ò" horiz-adv-x="1116" d="M1034 719Q1034 564 1006 429T920 193T772 35T557 -23Q432 -23 342 34T194 191T109 425T82 715Q82 870 110 1005T196 1240T345 1398T561 1456Q685 1456 774 1399T922 1242T1007 1008T1034 719ZM772 715Q772 829 760 919T722 1072T655 1167T557 1200Q499 1200 459 1168T393 1074T356 923T344 719Q344 605 356 515T395 362T462 266T561 233Q618 233 658 265T723 359T760 511T772 715ZM664 1526H465L168 1853H486L664 1526Z"/><glyph unicode="Ó" horiz-adv-x="1116" d="M1034 719Q1034 564 1006 429T920 193T772 35T557 -23Q432 -23 342 34T194 191T109 425T82 715Q82 870 110 1005T196 1240T345 1398T561 1456Q685 1456 774 1399T922 1242T1007 1008T1034 719ZM772 715Q772 829 760 919T722 1072T655 1167T557 1200Q499 1200 459 1168T393 1074T356 923T344 719Q344 605 356 515T395 362T462 266T561 233Q618 233 658 265T723 359T760 511T772 715ZM913 1853L616 1526H417L596 1853H913Z"/><glyph unicode="Ô" horiz-adv-x="1116" d="M1034 719Q1034 564 1006 429T920 193T772 35T557 -23Q432 -23 342 34T194 191T109 425T82 715Q82 870 110 1005T196 1240T345 1398T561 1456Q685 1456 774 1399T922 1242T1007 1008T1034 719ZM772 715Q772 829 760 919T722 1072T655 1167T557 1200Q499 1200 459 1168T393 1074T356 923T344 719Q344 605 356 515T395 362T462 266T561 233Q618 233 658 265T723 359T760 511T772 715ZM886 1516H706L549 1665L391 1516H215L438 1843H663L886 1516Z"/><glyph unicode="Õ" horiz-adv-x="1116" d="M1034 719Q1034 564 1006 429T920 193T772 35T557 -23Q432 -23 342 34T194 191T109 425T82 715Q82 870 110 1005T196 1240T345 1398T561 1456Q685 1456 774 1399T922 1242T1007 1008T1034 719ZM772 715Q772 829 760 919T722 1072T655 1167T557 1200Q499 1200 459 1168T393 1074T356 923T344 719Q344 605 356 515T395 362T462 266T561 233Q618 233 658 265T723 359T760 511T772 715ZM902 1786Q902 1724 888 1675T847 1591T783 1538T701 1519Q673 1519 652 1522T612 1533T572 1551T525 1577Q505 1589 492 1596T468 1608T450 1613T433 1614Q408 1614 396 1595T375 1526H218Q218 1587 232 1636T273 1720T337 1773T418 1792Q446 1792 467 1789T507 1778T547 1760T594 1734Q614 1722 627 1715T651 1704T669 1699T687 1698Q711 1698 723 1717T744 1786H902Z"/><glyph unicode="Ö" horiz-adv-x="1116" d="M1034 719Q1034 564 1006 429T920 193T772 35T557 -23Q432 -23 342 34T194 191T109 425T82 715Q82 870 110 1005T196 1240T345 1398T561 1456Q685 1456 774 1399T922 1242T1007 1008T1034 719ZM772 715Q772 829 760 919T722 1072T655 1167T557 1200Q499 1200 459 1168T393 1074T356 923T344 719Q344 605 356 515T395 362T462 266T561 233Q618 233 658 265T723 359T760 511T772 715ZM904 1671Q904 1642 892 1616T860 1569T814 1538T758 1526Q728 1526 702 1537T655 1569T623 1615T611 1671Q611 1701 622 1727T654 1774T701 1806T758 1818Q787 1818 813 1807T860 1775T892 1728T904 1671ZM512 1671Q512 1642 501 1616T469 1569T423 1538T367 1526Q337 1526 311 1537T264 1569T232 1615T220 1671Q220 1701 231 1727T263 1774T310 1806T367 1818Q396 1818 422 1807T469 1775T500 1728T512 1671Z"/><glyph unicode="×" horiz-adv-x="1536" d="M472 376L352 492L648 792L352 1088L480 1212L768 912L1068 1204L1184 1088L892 792L1184 492L1068 376L768 668L472 376Z"/><glyph unicode="Ø" horiz-adv-x="1116" d="M1034 719Q1034 564 1006 429T920 193T772 35T557 -23Q471 -23 395 8L352 -102H129L223 147Q186 197 160 260T116 395T90 548T82 715Q82 870 110 1005T196 1240T345 1398T561 1456Q651 1456 723 1425L768 1536H991L895 1284Q967 1184 1000 1038T1034 719ZM633 1196Q598 1214 557 1214Q498 1214 456 1181T386 1084T347 928T334 719Q334 643 339 578T356 459L633 1196ZM782 715Q782 789 778 853T762 971L485 236Q502 228 520 224T561 219Q619 219 661 252T730 349T769 505T782 715Z"/><glyph unicode="Ù" horiz-adv-x="1106" d="M979 573Q979 433 957 323T884 136T753 18T553 -23Q439 -23 358 19T226 139T151 326T127 569V1434H383V569Q383 476 393 412T425 308T478 249T555 231Q600 231 631 249T683 307T713 412T723 569V1434H979V573ZM666 1506H467L170 1833H488L666 1506Z"/><glyph unicode="Ú" horiz-adv-x="1106" d="M979 573Q979 433 957 323T884 136T753 18T553 -23Q439 -23 358 19T226 139T151 326T127 569V1434H383V569Q383 476 393 412T425 308T478 249T555 231Q600 231 631 249T683 307T713 412T723 569V1434H979V573ZM915 1833L618 1506H419L598 1833H915Z"/><glyph unicode="Û" horiz-adv-x="1106" d="M979 573Q979 433 957 323T884 136T753 18T553 -23Q439 -23 358 19T226 139T151 326T127 569V1434H383V569Q383 476 393 412T425 308T478 249T555 231Q600 231 631 249T683 307T713 412T723 569V1434H979V573ZM888 1526H708L551 1675L393 1526H217L440 1853H665L888 1526Z"/><glyph unicode="Ü" horiz-adv-x="1106" d="M979 573Q979 433 957 323T884 136T753 18T553 -23Q439 -23 358 19T226 139T151 326T127 569V1434H383V569Q383 476 393 412T425 308T478 249T555 231Q600 231 631 249T683 307T713 412T723 569V1434H979V573ZM893 1671Q893 1642 881 1616T849 1569T803 1538T747 1526Q717 1526 691 1537T644 1569T612 1615T600 1671Q600 1701 611 1727T643 1774T690 1806T747 1818Q776 1818 802 1807T849 1775T881 1728T893 1671ZM501 1671Q501 1642 490 1616T458 1569T412 1538T356 1526Q326 1526 300 1537T253 1569T221 1615T209 1671Q209 1701 220 1727T252 1774T299 1806T356 1818Q385 1818 411 1807T458 1775T489 1728T501 1671Z"/><glyph unicode="Ý" horiz-adv-x="1065" d="M1030 1434L659 541V0H403V537L35 1434H317L428 1143Q446 1096 463 1048T494 955T519 872T535 809Q540 834 551 873T576 957T607 1050T641 1143L752 1434H1030ZM901 1843L604 1516H405L584 1843H901Z"/><glyph unicode="Þ" horiz-adv-x="1020" d="M971 752Q971 636 933 549T829 404T680 318T504 289H389V0H133V1434H389V1208H514Q616 1208 700 1179T844 1093T938 951T971 752ZM715 748Q715 792 705 830T670 897T607 942T512 958H389V539H516Q615 539 665 593T715 748Z"/><glyph unicode="ß" horiz-adv-x="1026" d="M950 457Q950 346 924 261T842 118T703 30T504 0H473V221H498Q546 221 584 233T650 274T691 347T705 457Q705 522 689 568T643 643T575 686T489 700H473V920H492Q569 920 609 966T649 1102Q649 1183 610 1222T502 1262Q426 1262 390 1222T354 1098V-274L113 -395V1087Q113 1192 140 1267T218 1391T341 1463T506 1487Q593 1487 665 1463T788 1393T867 1277T895 1118Q895 1003 847 930T709 823Q757 805 801 776T878 704T930 600T950 457Z"/><glyph unicode="à" horiz-adv-x="909" d="M807 0H565V74Q528 27 477 2T373 -23Q302 -23 244 3T143 78T78 196T55 352Q55 434 80 500T149 613T253 685T385 711Q420 711 446 708T492 700T530 687T565 668V750Q565 778 559 802T537 845T497 873T436 883Q402 883 374 879T319 867T269 847T219 817L121 993Q195 1044 274 1071T453 1098Q546 1098 613 1075T723 1007T786 895T807 739V0ZM565 283V455Q536 479 505 492T418 506Q392 506 371 495T334 465T310 418T301 356Q301 278 332 236T424 193Q467 193 504 218T565 283ZM827 1219H628L331 1546H649L827 1219Z"/><glyph unicode="á" horiz-adv-x="909" d="M807 0H565V74Q528 27 477 2T373 -23Q302 -23 244 3T143 78T78 196T55 352Q55 434 80 500T149 613T253 685T385 711Q420 711 446 708T492 700T530 687T565 668V750Q565 778 559 802T537 845T497 873T436 883Q402 883 374 879T319 867T269 847T219 817L121 993Q195 1044 274 1071T453 1098Q546 1098 613 1075T723 1007T786 895T807 739V0ZM565 283V455Q536 479 505 492T418 506Q392 506 371 495T334 465T310 418T301 356Q301 278 332 236T424 193Q467 193 504 218T565 283ZM819 1546L522 1219H323L502 1546H819Z"/><glyph unicode="â" horiz-adv-x="909" d="M807 0H565V74Q528 27 477 2T373 -23Q302 -23 244 3T143 78T78 196T55 352Q55 434 80 500T149 613T253 685T385 711Q420 711 446 708T492 700T530 687T565 668V750Q565 778 559 802T537 845T497 873T436 883Q402 883 374 879T319 867T269 847T219 817L121 993Q195 1044 274 1071T453 1098Q546 1098 613 1075T723 1007T786 895T807 739V0ZM565 283V455Q536 479 505 492T418 506Q392 506 371 495T334 465T310 418T301 356Q301 278 332 236T424 193Q467 193 504 218T565 283ZM782 1466H602L445 1615L287 1466H111L334 1793H559L782 1466Z"/><glyph unicode="ã" horiz-adv-x="909" d="M807 0H565V74Q528 27 477 2T373 -23Q302 -23 244 3T143 78T78 196T55 352Q55 434 80 500T149 613T253 685T385 711Q420 711 446 708T492 700T530 687T565 668V750Q565 778 559 802T537 845T497 873T436 883Q402 883 374 879T319 867T269 847T219 817L121 993Q195 1044 274 1071T453 1098Q546 1098 613 1075T723 1007T786 895T807 739V0ZM565 283V455Q536 479 505 492T418 506Q392 506 371 495T334 465T310 418T301 356Q301 278 332 236T424 193Q467 193 504 218T565 283ZM789 1479Q789 1417 775 1368T734 1284T670 1231T588 1212Q560 1212 539 1215T499 1226T459 1244T412 1270Q392 1282 379 1289T355 1301T337 1306T320 1307Q295 1307 283 1288T262 1219H105Q105 1280 119 1329T160 1413T224 1466T305 1485Q333 1485 354 1482T394 1471T434 1453T481 1427Q501 1415 514 1408T538 1397T556 1392T574 1391Q598 1391 610 1410T631 1479H789Z"/><glyph unicode="ä" horiz-adv-x="909" d="M807 0H565V74Q528 27 477 2T373 -23Q302 -23 244 3T143 78T78 196T55 352Q55 434 80 500T149 613T253 685T385 711Q420 711 446 708T492 700T530 687T565 668V750Q565 778 559 802T537 845T497 873T436 883Q402 883 374 879T319 867T269 847T219 817L121 993Q195 1044 274 1071T453 1098Q546 1098 613 1075T723 1007T786 895T807 739V0ZM565 283V455Q536 479 505 492T418 506Q392 506 371 495T334 465T310 418T301 356Q301 278 332 236T424 193Q467 193 504 218T565 283ZM789 1611Q789 1582 777 1556T745 1509T699 1478T643 1466Q613 1466 587 1477T540 1509T508 1555T496 1611Q496 1641 507 1667T539 1714T586 1746T643 1758Q672 1758 698 1747T745 1715T777 1668T789 1611ZM397 1611Q397 1582 386 1556T354 1509T308 1478T252 1466Q222 1466 196 1477T149 1509T117 1555T105 1611Q105 1641 116 1667T148 1714T195 1746T252 1758Q281 1758 307 1747T354 1715T385 1668T397 1611Z"/><glyph unicode="å" horiz-adv-x="909" d="M807 0H565V74Q528 27 477 2T373 -23Q302 -23 244 3T143 78T78 196T55 352Q55 434 80 500T149 613T253 685T385 711Q420 711 446 708T492 700T530 687T565 668V750Q565 778 559 802T537 845T497 873T436 883Q402 883 374 879T319 867T269 847T219 817L121 993Q195 1044 274 1071T453 1098Q546 1098 613 1075T723 1007T786 895T807 739V0ZM565 283V455Q536 479 505 492T418 506Q392 506 371 495T334 465T310 418T301 356Q301 278 332 236T424 193Q467 193 504 218T565 283ZM690 1460Q690 1408 672 1364T621 1288T544 1237T447 1219Q394 1219 350 1237T273 1287T222 1364T203 1460Q203 1512 221 1556T272 1634T349 1685T447 1704Q499 1704 543 1686T620 1634T671 1557T690 1460ZM553 1460Q553 1483 545 1503T522 1537T489 1560T447 1569Q424 1569 405 1561T371 1538T349 1503T340 1460Q340 1437 348 1418T371 1384T404 1361T447 1352Q469 1352 488 1360T522 1383T544 1417T553 1460Z"/><glyph unicode="æ" horiz-adv-x="1415" d="M1343 537Q1343 515 1342 492T1339 446H797Q801 384 815 339T851 265T903 221T969 207Q1001 207 1025 213T1068 230T1103 259T1137 301L1309 172Q1249 73 1160 25T965 -23Q868 -23 800 18T684 133Q613 52 539 15T373 -23Q302 -23 244 3T143 78T78 196T55 352Q55 434 80 500T149 613T253 685T385 711Q420 711 446 708T492 700T530 687T565 668V750Q565 778 559 802T537 845T497 873T436 883Q402 883 374 879T319 867T269 847T219 817L121 993Q195 1044 274 1071T453 1098Q509 1098 549 1088T618 1061T668 1021T705 971Q725 997 749 1020T804 1060T870 1088T950 1098Q1052 1098 1126 1052T1248 928T1319 749T1343 537ZM1102 645Q1097 694 1088 737T1060 812T1015 862T948 881Q815 881 797 645H1102ZM565 283V455Q536 479 505 492T418 506Q392 506 371 495T334 465T310 418T301 356Q301 278 332 236T424 193Q467 193 504 218T565 283Z"/><glyph unicode="ç" horiz-adv-x="881" d="M817 854L623 723Q595 789 560 828T471 868Q430 868 401 845T353 779T326 675T317 539Q317 464 326 403T356 298T406 231T479 207Q505 207 528 219T570 252T606 302T635 365L813 236Q791 183 761 138T693 59T609 5T506 -20L492 -86Q506 -80 523 -77T565 -74Q624 -74 662 -110T700 -217Q700 -263 684 -296T639 -352T571 -384T487 -395Q447 -395 415 -390T354 -376T301 -354T250 -322L293 -244Q339 -268 371 -282T444 -297Q498 -297 521 -278T545 -223Q545 -197 531 -182T492 -166Q472 -166 458 -170T430 -184L356 -156L391 -12Q320 3 261 46T160 158T95 321T72 535Q72 671 102 776T186 952T314 1061T475 1098Q600 1098 684 1037T817 854Z"/><glyph unicode="è" horiz-adv-x="934" d="M862 537Q862 515 861 492T858 446H315Q319 384 333 339T369 265T422 221T487 207Q519 207 543 213T586 230T621 259T655 301L827 172Q767 73 679 25T483 -23Q383 -23 307 18T178 132T99 309T72 537Q72 672 101 776T183 952T309 1061T469 1098Q570 1098 644 1052T766 928T838 749T862 537ZM621 645Q616 694 606 737T578 812T533 862T467 881Q334 881 315 645H621ZM841 1219H642L345 1546H663L841 1219Z"/><glyph unicode="é" horiz-adv-x="934" d="M862 537Q862 515 861 492T858 446H315Q319 384 333 339T369 265T422 221T487 207Q519 207 543 213T586 230T621 259T655 301L827 172Q767 73 679 25T483 -23Q383 -23 307 18T178 132T99 309T72 537Q72 672 101 776T183 952T309 1061T469 1098Q570 1098 644 1052T766 928T838 749T862 537ZM621 645Q616 694 606 737T578 812T533 862T467 881Q334 881 315 645H621ZM833 1546L536 1219H337L516 1546H833Z"/><glyph unicode="ê" horiz-adv-x="934" d="M862 537Q862 515 861 492T858 446H315Q319 384 333 339T369 265T422 221T487 207Q519 207 543 213T586 230T621 259T655 301L827 172Q767 73 679 25T483 -23Q383 -23 307 18T178 132T99 309T72 537Q72 672 101 776T183 952T309 1061T469 1098Q570 1098 644 1052T766 928T838 749T862 537ZM621 645Q616 694 606 737T578 812T533 862T467 881Q334 881 315 645H621ZM796 1456H616L459 1605L301 1456H125L348 1783H573L796 1456Z"/><glyph unicode="ë" horiz-adv-x="934" d="M862 537Q862 515 861 492T858 446H315Q319 384 333 339T369 265T422 221T487 207Q519 207 543 213T586 230T621 259T655 301L827 172Q767 73 679 25T483 -23Q383 -23 307 18T178 132T99 309T72 537Q72 672 101 776T183 952T309 1061T469 1098Q570 1098 644 1052T766 928T838 749T862 537ZM621 645Q616 694 606 737T578 812T533 862T467 881Q334 881 315 645H621ZM803 1611Q803 1582 791 1556T759 1509T713 1478T657 1466Q627 1466 601 1477T554 1509T522 1555T510 1611Q510 1641 521 1667T553 1714T600 1746T657 1758Q686 1758 712 1747T759 1715T791 1668T803 1611ZM411 1611Q411 1582 400 1556T368 1509T322 1478T266 1466Q236 1466 210 1477T163 1509T131 1555T119 1611Q119 1641 130 1667T162 1714T209 1746T266 1758Q295 1758 321 1747T368 1715T399 1668T411 1611Z"/><glyph unicode="ì" horiz-adv-x="487" d="M365 0H123V1075H365V0ZM358 1219H159L-138 1546H180L358 1219Z"/><glyph unicode="í" horiz-adv-x="487" d="M365 0H123V1075H365V0ZM884 1546L587 1219H388L567 1546H884Z"/><glyph unicode="î" horiz-adv-x="487" d="M365 0H123V1075H365V0ZM580 1189H400L243 1338L85 1189H-91L132 1516H357L580 1189Z"/><glyph unicode="ï" horiz-adv-x="487" d="M365 0H123V1075H365V0ZM583 1364Q583 1335 571 1309T539 1262T493 1231T437 1219Q407 1219 381 1230T334 1262T302 1308T290 1364Q290 1394 301 1420T333 1467T380 1499T437 1511Q466 1511 492 1500T539 1468T571 1421T583 1364ZM191 1364Q191 1335 180 1309T148 1262T102 1231T46 1219Q16 1219 -10 1230T-57 1262T-89 1308T-101 1364Q-101 1394 -90 1420T-58 1467T-11 1499T46 1511Q75 1511 101 1500T148 1468T179 1421T191 1364Z"/><glyph unicode="ð" horiz-adv-x="958" d="M887 596Q887 430 862 313T787 121T660 12T479 -23Q389 -23 314 9T185 105T102 261T72 477Q72 607 104 702T188 859T309 952T449 983Q514 983 564 962T662 889Q649 960 622 1020T557 1126L457 1030L338 1147L424 1231Q363 1259 291 1268V1456Q452 1441 571 1370L662 1456L778 1337L698 1262Q792 1152 839 987T887 596ZM641 477Q641 611 600 682T477 754Q394 754 356 686T317 481Q317 345 357 276T481 207Q522 207 552 226T602 281T631 366T641 477Z"/><glyph unicode="ñ" horiz-adv-x="944" d="M842 0H600V696Q600 746 596 779T581 833T550 863T498 872Q478 872 457 864T417 843T381 814T354 782V0H113V1075H354V1001Q395 1045 445 1071T555 1098Q641 1098 696 1072T784 996T829 872T842 705V0ZM818 1479Q818 1417 804 1368T763 1284T699 1231T617 1212Q589 1212 568 1215T528 1226T488 1244T441 1270Q421 1282 408 1289T384 1301T366 1306T349 1307Q324 1307 312 1288T291 1219H134Q134 1280 148 1329T189 1413T253 1466T334 1485Q362 1485 383 1482T423 1471T463 1453T510 1427Q530 1415 543 1408T567 1397T585 1392T603 1391Q627 1391 639 1410T660 1479H818Z"/><glyph unicode="ò" horiz-adv-x="958" d="M887 539Q887 403 857 298T773 122T644 14T479 -23Q389 -23 314 13T185 119T102 294T72 535Q72 671 102 776T186 952T315 1061T481 1098Q571 1098 645 1062T774 954T857 779T887 539ZM641 535Q641 609 632 670T602 776T551 844T477 868Q433 868 403 845T353 779T326 675T317 539Q317 464 326 403T355 298T406 231T481 207Q524 207 554 233T604 303T632 407T641 535ZM843 1219H644L347 1546H665L843 1219Z"/><glyph unicode="ó" horiz-adv-x="958" d="M887 539Q887 403 857 298T773 122T644 14T479 -23Q389 -23 314 13T185 119T102 294T72 535Q72 671 102 776T186 952T315 1061T481 1098Q571 1098 645 1062T774 954T857 779T887 539ZM641 535Q641 609 632 670T602 776T551 844T477 868Q433 868 403 845T353 779T326 675T317 539Q317 464 326 403T355 298T406 231T481 207Q524 207 554 233T604 303T632 407T641 535ZM836 1546L539 1219H340L519 1546H836Z"/><glyph unicode="ô" horiz-adv-x="958" d="M887 539Q887 403 857 298T773 122T644 14T479 -23Q389 -23 314 13T185 119T102 294T72 535Q72 671 102 776T186 952T315 1061T481 1098Q571 1098 645 1062T774 954T857 779T887 539ZM641 535Q641 609 632 670T602 776T551 844T477 868Q433 868 403 845T353 779T326 675T317 539Q317 464 326 403T355 298T406 231T481 207Q524 207 554 233T604 303T632 407T641 535ZM808 1456H628L471 1605L313 1456H137L360 1783H585L808 1456Z"/><glyph unicode="õ" horiz-adv-x="958" d="M887 539Q887 403 857 298T773 122T644 14T479 -23Q389 -23 314 13T185 119T102 294T72 535Q72 671 102 776T186 952T315 1061T481 1098Q571 1098 645 1062T774 954T857 779T887 539ZM641 535Q641 609 632 670T602 776T551 844T477 868Q433 868 403 845T353 779T326 675T317 539Q317 464 326 403T355 298T406 231T481 207Q524 207 554 233T604 303T632 407T641 535ZM811 1479Q811 1417 797 1368T756 1284T692 1231T610 1212Q582 1212 561 1215T521 1226T481 1244T434 1270Q414 1282 401 1289T377 1301T359 1306T342 1307Q317 1307 305 1288T284 1219H127Q127 1280 141 1329T182 1413T246 1466T327 1485Q355 1485 376 1482T416 1471T456 1453T503 1427Q523 1415 536 1408T560 1397T578 1392T596 1391Q620 1391 632 1410T653 1479H811Z"/><glyph unicode="ö" horiz-adv-x="958" d="M887 539Q887 403 857 298T773 122T644 14T479 -23Q389 -23 314 13T185 119T102 294T72 535Q72 671 102 776T186 952T315 1061T481 1098Q571 1098 645 1062T774 954T857 779T887 539ZM641 535Q641 609 632 670T602 776T551 844T477 868Q433 868 403 845T353 779T326 675T317 539Q317 464 326 403T355 298T406 231T481 207Q524 207 554 233T604 303T632 407T641 535ZM815 1601Q815 1572 803 1546T771 1499T725 1468T669 1456Q639 1456 613 1467T566 1499T534 1545T522 1601Q522 1631 533 1657T565 1704T612 1736T669 1748Q698 1748 724 1737T771 1705T803 1658T815 1601ZM423 1601Q423 1572 412 1546T380 1499T334 1468T278 1456Q248 1456 222 1467T175 1499T143 1545T131 1601Q131 1631 142 1657T174 1704T221 1736T278 1748Q307 1748 333 1737T380 1705T411 1658T423 1601Z"/><glyph unicode="÷" horiz-adv-x="1536" d="M208 684V896H1328V684H208ZM768 228Q704 228 656 276T608 388Q608 452 650 500T768 548Q840 548 884 500T928 388Q928 324 880 276T768 228ZM768 1028Q704 1028 656 1076T608 1188Q608 1252 650 1300T768 1348Q840 1348 884 1300T928 1188Q928 1124 880 1076T768 1028Z"/><glyph unicode="ø" horiz-adv-x="958" d="M887 539Q887 403 857 298T773 122T644 14T479 -23Q448 -23 420 -19T365 -6L328 -102H139L211 90Q145 159 109 270T72 535Q72 671 102 776T186 952T315 1061T481 1098Q540 1098 594 1081L629 1178H817L741 991Q811 920 849 807T887 539ZM518 879Q500 885 477 885Q431 885 399 861T347 791T318 682T309 539Q309 488 312 444T326 362L518 879ZM649 535Q649 586 645 631T633 715L440 197Q450 194 460 192T481 190Q526 190 558 217T610 292T640 401T649 535Z"/><glyph unicode="ù" horiz-adv-x="944" d="M831 0H590V74Q550 30 499 4T389 -23Q303 -23 248 3T160 79T115 203T102 371V1075H344V379Q344 329 348 296T363 242T394 212T446 203Q466 203 487 211T527 232T563 261T590 293V1075H831V0ZM833 1219H634L337 1546H655L833 1219Z"/><glyph unicode="ú" horiz-adv-x="944" d="M831 0H590V74Q550 30 499 4T389 -23Q303 -23 248 3T160 79T115 203T102 371V1075H344V379Q344 329 348 296T363 242T394 212T446 203Q466 203 487 211T527 232T563 261T590 293V1075H831V0ZM825 1546L528 1219H329L508 1546H825Z"/><glyph unicode="û" horiz-adv-x="944" d="M831 0H590V74Q550 30 499 4T389 -23Q303 -23 248 3T160 79T115 203T102 371V1075H344V379Q344 329 348 296T363 242T394 212T446 203Q466 203 487 211T527 232T563 261T590 293V1075H831V0ZM798 1219H618L461 1368L303 1219H127L350 1546H575L798 1219Z"/><glyph unicode="ü" horiz-adv-x="944" d="M831 0H590V74Q550 30 499 4T389 -23Q303 -23 248 3T160 79T115 203T102 371V1075H344V379Q344 329 348 296T363 242T394 212T446 203Q466 203 487 211T527 232T563 261T590 293V1075H831V0ZM803 1364Q803 1335 791 1309T759 1262T713 1231T657 1219Q627 1219 601 1230T554 1262T522 1308T510 1364Q510 1394 521 1420T553 1467T600 1499T657 1511Q686 1511 712 1500T759 1468T791 1421T803 1364ZM411 1364Q411 1335 400 1309T368 1262T322 1231T266 1219Q236 1219 210 1230T163 1262T131 1308T119 1364Q119 1394 130 1420T162 1467T209 1499T266 1511Q295 1511 321 1500T368 1468T399 1421T411 1364Z"/><glyph unicode="ý" horiz-adv-x="926" d="M885 1075L475 -379H252L360 18L41 1075H295L395 674Q405 634 417 584T440 484T460 393T473 328Q477 351 485 393T503 485T523 584T543 672L633 1075H885ZM825 1537L528 1210H329L508 1537H825Z"/><glyph unicode="þ" horiz-adv-x="950" d="M874 539Q874 416 855 313T796 135T692 19T541 -23Q487 -23 438 -1T354 59V-274L113 -395V1372L354 1493V1001Q395 1045 448 1071T561 1098Q712 1098 793 961T874 539ZM629 530Q629 618 624 682T604 789T566 851T504 872Q481 872 459 864T418 843T382 814T354 782V295Q366 277 382 261T417 232T459 211T508 203Q540 203 563 219T600 273T622 374T629 530Z"/><glyph unicode="ÿ" horiz-adv-x="926" d="M885 1075L475 -379H252L360 18L41 1075H295L395 674Q405 634 417 584T440 484T460 393T473 328Q477 351 485 393T503 485T523 584T543 672L633 1075H885ZM799 1611Q799 1582 787 1556T755 1509T709 1478T653 1466Q623 1466 597 1477T550 1509T518 1555T506 1611Q506 1641 517 1667T549 1714T596 1746T653 1758Q682 1758 708 1747T755 1715T787 1668T799 1611ZM407 1611Q407 1582 396 1556T364 1509T318 1478T262 1466Q232 1466 206 1477T159 1509T127 1555T115 1611Q115 1641 126 1667T158 1714T205 1746T262 1758Q291 1758 317 1747T364 1715T395 1668T407 1611Z"/><glyph unicode="ı" horiz-adv-x="487" d="M365 0H123V1075H365V0Z"/><glyph unicode="Ł" horiz-adv-x="938" d="M868 0H164V465L72 389V645L164 721V1434H414V903L592 1044V788L414 647V250H868V0Z"/><glyph unicode="ł" horiz-adv-x="557" d="M504 723L395 637V0H162V467L53 379V635L162 721V1372L395 1493V891L504 979V723Z"/><glyph unicode="Œ" horiz-adv-x="1599" d="M1511 0H825V133Q779 58 713 18T547 -23Q427 -23 340 34T195 191T110 425T82 715Q82 870 110 1005T195 1240T341 1398T551 1456Q602 1456 643 1446T717 1415T776 1365T825 1300V1434H1493V1188H1014V885H1335V643H1014V246H1511V0ZM772 715Q772 829 760 919T722 1072T655 1167T557 1200Q499 1200 459 1168T393 1074T356 923T344 719Q344 605 356 515T395 362T462 266T561 233Q618 233 658 265T723 359T760 511T772 715Z"/><glyph unicode="œ" horiz-adv-x="1491" d="M1419 537Q1419 515 1418 492T1415 446H872Q876 384 890 339T926 265T979 221T1044 207Q1076 207 1100 213T1143 230T1178 259T1212 301L1384 172Q1324 73 1236 25T1040 -23Q987 -23 944 -10T867 25T806 79T758 145Q738 110 711 79T650 26T573 -10T479 -23Q389 -23 314 13T185 119T102 294T72 535Q72 671 102 776T186 952T315 1061T481 1098Q575 1098 648 1055T758 934Q801 1009 867 1053T1026 1098Q1127 1098 1201 1052T1323 928T1395 749T1419 537ZM1178 645Q1173 694 1163 737T1135 812T1090 862T1024 881Q891 881 872 645H1178ZM641 535Q641 609 632 670T602 776T551 844T477 868Q433 868 403 845T353 779T326 675T317 539Q317 464 326 403T355 298T406 231T481 207Q524 207 554 233T604 303T632 407T641 535Z"/><glyph unicode="Š" horiz-adv-x="965" d="M907 387Q907 298 877 223T792 93T657 8T477 -23Q404 -23 342 -5T227 44T130 116T49 203L223 389Q288 306 355 266T487 225Q568 225 607 267T647 381Q647 412 637 440T601 496T533 553T428 614Q348 656 285 699T177 795T110 915T86 1071Q86 1152 115 1222T196 1344T323 1426T487 1456Q554 1456 609 1443T711 1403T799 1339T879 1251L709 1081Q677 1117 652 1141T601 1180T547 1201T481 1208Q419 1208 383 1173T346 1083Q346 1051 356 1024T390 971T453 918T551 860Q644 810 711 764T821 665T886 545T907 387ZM811 1863L588 1536H363L140 1863H320L478 1714L635 1863H811Z"/><glyph unicode="š" horiz-adv-x="848" d="M764 315Q764 232 738 169T665 63T553 -1T412 -23Q312 -23 230 5T72 94L158 301Q226 253 288 230T416 207Q473 207 500 231T528 295Q528 317 519 334T488 370T428 408T334 457Q275 485 232 517T159 588T115 677T100 788Q100 860 125 917T194 1015T299 1076T432 1098Q517 1098 590 1074T735 999L651 803Q616 821 588 833T533 853T481 864T426 868Q384 868 360 848T336 795Q336 777 343 762T371 730T426 693T516 647Q575 618 621 587T699 516T747 427T764 315ZM747 1546L524 1219H299L76 1546H256L414 1397L571 1546H747Z"/><glyph unicode="Ÿ" horiz-adv-x="1065" d="M1030 1434L659 541V0H403V537L35 1434H317L428 1143Q446 1096 463 1048T494 955T519 872T535 809Q540 834 551 873T576 957T607 1050T641 1143L752 1434H1030ZM875 1661Q875 1632 863 1606T831 1559T785 1528T729 1516Q699 1516 673 1527T626 1559T594 1605T582 1661Q582 1691 593 1717T625 1764T672 1796T729 1808Q758 1808 784 1797T831 1765T863 1718T875 1661ZM483 1661Q483 1632 472 1606T440 1559T394 1528T338 1516Q308 1516 282 1527T235 1559T203 1605T191 1661Q191 1691 202 1717T234 1764T281 1796T338 1808Q367 1808 393 1797T440 1765T471 1718T483 1661Z"/><glyph unicode="Ž" horiz-adv-x="961" d="M858 0H76V227L492 1026Q519 1080 545 1124T594 1206Q556 1204 511 1203T412 1202H111V1434H858V1206L446 408Q419 354 393 309T344 227Q382 229 427 230T526 231H858V0ZM817 1853L594 1526H369L146 1853H326L484 1704L641 1853H817Z"/><glyph unicode="ž" horiz-adv-x="850" d="M758 0H78V211L362 641Q404 704 444 761T516 862Q468 860 412 859T289 858H109V1075H758V864L479 434Q437 369 398 314T324 213Q373 215 430 216T553 217H758V0ZM759 1546L536 1219H311L88 1546H268L426 1397L583 1546H759Z"/><glyph unicode="ƒ" horiz-adv-x="743" d="M682 1214Q613 1237 545 1237Q494 1237 469 1214T444 1133V1069H637V846H444V-281L203 -401V846H94V1069H203V1167Q203 1242 224 1295T283 1383T370 1434T479 1450Q542 1450 590 1442T682 1419V1214Z"/><glyph unicode="ˆ" horiz-adv-x="819" d="M745 1219H565L408 1368L250 1219H74L297 1546H522L745 1219Z"/><glyph unicode="ˇ" horiz-adv-x="819" d="M745 1546L522 1219H297L74 1546H254L412 1397L569 1546H745Z"/><glyph unicode="˘" horiz-adv-x="819" d="M737 1546Q717 1385 638 1302T410 1219Q265 1219 186 1302T86 1546H248Q257 1510 269 1483T301 1439T348 1412T416 1403Q454 1403 481 1412T528 1438T561 1483T584 1546H737Z"/><glyph unicode="˙" horiz-adv-x="819" d="M555 1364Q555 1335 543 1309T511 1262T465 1231T410 1219Q380 1219 353 1230T306 1262T274 1308T262 1364Q262 1394 274 1420T306 1467T353 1499T410 1511Q439 1511 465 1500T511 1468T543 1421T555 1364Z"/><glyph unicode="˚" horiz-adv-x="819" d="M653 1460Q653 1408 635 1364T584 1288T507 1237T410 1219Q357 1219 313 1237T236 1287T185 1364T166 1460Q166 1512 184 1556T235 1634T312 1685T410 1704Q462 1704 506 1686T583 1634T634 1557T653 1460ZM516 1460Q516 1483 508 1503T485 1537T452 1560T410 1569Q387 1569 368 1561T334 1538T312 1503T303 1460Q303 1437 311 1418T334 1384T367 1361T410 1352Q432 1352 451 1360T485 1383T507 1417T516 1460Z"/><glyph unicode="˛" horiz-adv-x="819" d="M633 -311Q579 -349 523 -372T393 -395Q310 -395 260 -352T209 -225Q209 -191 221 -161T256 -103T309 -50T375 0H498Q461 -39 437 -67T399 -118T379 -161T373 -203Q373 -234 388 -254T436 -274Q455 -274 472 -272T506 -265T541 -252T582 -231L633 -311Z"/><glyph unicode="˜" horiz-adv-x="819" d="M752 1479Q752 1417 738 1368T697 1284T633 1231T551 1212Q523 1212 502 1215T462 1226T422 1244T375 1270Q355 1282 342 1289T318 1301T300 1306T283 1307Q258 1307 246 1288T225 1219H68Q68 1280 82 1329T123 1413T187 1466T268 1485Q296 1485 317 1482T357 1471T397 1453T444 1427Q464 1415 477 1408T501 1397T519 1392T537 1391Q561 1391 573 1410T594 1479H752Z"/><glyph unicode="˝" horiz-adv-x="819" d="M893 1546L596 1219H403L592 1546H893ZM504 1546L207 1219H14L203 1546H504Z"/><glyph unicode="̄" horiz-adv-x="819" d="M676 1249H143V1444H676V1249Z"/><glyph unicode="Δ" horiz-adv-x="1536" d="M76 0L652 1536H884L1456 0H76ZM352 148H1164L752 1256L352 148Z"/><glyph unicode="Ω" horiz-adv-x="1664" d="M832 1376Q644 1376 510 1234T376 836Q376 592 464 432T724 180V0H88V196H536Q416 240 304 406T192 848Q192 1112 358 1330T832 1548Q1140 1548 1306 1338T1472 848Q1472 572 1360 406T1128 196H1576V0H940V180Q1112 272 1200 432T1288 836Q1288 1044 1162 1210T832 1376Z"/><glyph unicode="μ" horiz-adv-x="1408" d="M252 -424Q196 -424 168 -392T140 -280Q140 -200 144 -106T156 100Q164 200 168 256T172 328Q176 348 176 356T176 368V1176H368V320Q368 228 450 176T628 124Q760 124 858 190T1008 380V1176H1200V308L1220 0H1056L1020 176Q952 68 836 14T572 -40Q520 -40 444 -14T324 60Q324 -28 352 -112T380 -264Q380 -424 252 -424Z"/><glyph unicode="π" horiz-adv-x="1408" d="M296 0V1028H12V1176H1316V1028H996V344Q996 228 1042 184T1152 140Q1200 140 1232 142T1296 156V28Q1248 4 1206 -6T1088 -16Q960 -16 886 64T812 336V1028H484V0H296Z"/><glyph unicode="–" horiz-adv-x="860" d="M768 612H92V874H768V612Z"/><glyph unicode="—" horiz-adv-x="1126" d="M1034 612H92V874H1034V612Z"/><glyph unicode="‘" horiz-adv-x="532" d="M406 1434L379 915H92L240 1434H406Z"/><glyph unicode="’" horiz-adv-x="532" d="M440 1434L293 915H127L154 1434H440Z"/><glyph unicode="‚" horiz-adv-x="532" d="M440 301L293 -217H127L154 301H440Z"/><glyph unicode="“" horiz-adv-x="993" d="M866 1434L840 915H553L700 1434H866ZM406 1434L379 915H92L240 1434H406Z"/><glyph unicode="”" horiz-adv-x="993" d="M901 1434L754 915H588L614 1434H901ZM440 1434L293 915H127L154 1434H440Z"/><glyph unicode="„" horiz-adv-x="993" d="M901 301L754 -217H588L614 301H901ZM440 301L293 -217H127L154 301H440Z"/><glyph unicode="†" horiz-adv-x="950" d="M885 754H588V-205H342V754H66V1001H342V1434H588V1001H885V754Z"/><glyph unicode="‡" horiz-adv-x="950" d="M885 225H588V-205H342V225H66V473H342V754H66V1001H342V1434H588V1001H885V754H588V473H885V225Z"/><glyph unicode="•" horiz-adv-x="827" d="M745 750Q745 680 720 620T650 514T545 444T414 418Q344 418 284 443T178 514T108 619T82 750Q82 820 107 881T178 987T283 1059T414 1085Q484 1085 544 1059T649 988T719 881T745 750Z"/><glyph unicode="…" horiz-adv-x="1511" d="M1430 147Q1430 112 1417 82T1380 28T1325 -9T1260 -23Q1225 -23 1194 -10T1140 27T1104 81T1090 147Q1090 182 1103 213T1140 267T1194 303T1260 317Q1294 317 1325 304T1379 267T1416 213T1430 147ZM926 147Q926 112 913 82T876 28T821 -9T756 -23Q721 -23 691 -10T637 27T600 81T586 147Q586 182 599 213T636 267T690 303T756 317Q790 317 821 304T875 267T912 213T926 147ZM422 147Q422 112 409 82T372 28T317 -9T252 -23Q217 -23 187 -10T133 27T96 81T82 147Q82 182 95 213T132 267T186 303T252 317Q286 317 317 304T371 267T408 213T422 147Z"/><glyph unicode="‰" horiz-adv-x="2519" d="M709 1012Q709 910 688 827T624 686T521 597T379 565Q300 565 240 596T138 684T76 824T55 1008Q55 1111 76 1194T138 1335T241 1425T383 1456Q465 1456 526 1425T628 1336T689 1196T709 1012ZM1352 1434L616 0H410L1145 1434H1352ZM2468 424Q2468 322 2447 240T2383 99T2280 9T2138 -23Q2059 -23 1999 8T1898 96T1836 236T1815 420Q1815 523 1836 606T1898 747T2000 837T2142 868Q2224 868 2285 837T2387 748T2448 608T2468 424ZM1708 424Q1708 322 1687 240T1623 99T1520 9T1378 -23Q1299 -23 1239 8T1138 96T1076 236T1055 420Q1055 523 1076 606T1138 747T1240 837T1382 868Q1464 868 1525 837T1627 748T1688 608T1708 424ZM500 1008Q500 1136 475 1204T381 1272Q312 1272 288 1206T264 1012Q264 884 289 816T383 748Q417 748 440 766T476 819T494 901T500 1008ZM2259 420Q2259 548 2234 616T2140 684Q2071 684 2047 618T2023 424Q2023 296 2048 228T2142 160Q2176 160 2199 178T2235 231T2253 313T2259 420ZM1499 420Q1499 484 1494 533T1475 615T1438 666T1380 684Q1345 684 1323 668T1288 618T1269 537T1264 424Q1264 360 1269 311T1288 229T1324 178T1382 160Q1417 160 1439 178T1475 231T1494 313T1499 420Z"/><glyph unicode="‹" horiz-adv-x="631" d="M559 0H317L41 537L317 1075H559L293 539L559 0Z"/><glyph unicode="›" horiz-adv-x="631" d="M590 539L313 0H72L338 537L72 1075H313L590 539Z"/><glyph unicode="⁄" horiz-adv-x="860" d="M967 1434L170 0H-106L690 1434H967Z"/><glyph unicode="€" horiz-adv-x="1024" d="M336 764V719V668H707V489H352Q374 353 424 288T551 223Q584 223 609 232T657 264T698 327T737 428L958 334Q907 156 806 67T537 -23Q422 -23 337 34T195 191T110 425T82 715Q82 870 110 1005T197 1240T343 1398T551 1456Q642 1456 708 1431T822 1360T902 1249T956 1104L717 1026Q691 1115 651 1162T537 1210Q462 1210 416 1145T350 942H707V764H336Z"/><glyph unicode="℗" horiz-adv-x="1323" d="M1221 717Q1221 549 1178 412T1059 179T879 30T651 -23Q528 -23 424 29T244 178T125 412T82 717Q82 885 125 1021T244 1254T424 1403T651 1456Q774 1456 878 1404T1059 1255T1178 1022T1221 717ZM1096 713Q1096 852 1065 967T975 1164T834 1292T651 1337Q549 1337 467 1293T327 1169T238 975T207 721Q207 581 238 466T328 269T469 141T655 96Q756 96 837 140T976 264T1065 459T1096 713ZM926 862Q926 797 905 749T847 669T764 620T666 604H600V315H457V1118H672Q729 1118 775 1102T855 1054T907 974T926 862ZM782 860Q782 911 755 945T664 979H600V743H672Q727 743 754 773T782 860Z"/><glyph unicode="™" horiz-adv-x="1270" d="M498 1296H332V631H188V1296H23V1434H498V1296ZM1171 631H1042V887Q1042 947 1042 1000T1044 1096Q1032 1054 1015 1002T977 891L881 610L784 891Q764 951 747 1003T717 1098Q719 1056 719 1003T719 887V631H588V1434H733L831 1133Q848 1082 860 1040T883 961Q892 998 905 1040T934 1133L1030 1434H1171V631Z"/><glyph unicode="Ω" horiz-adv-x="1664" d="M832 1376Q644 1376 510 1234T376 836Q376 592 464 432T724 180V0H88V196H536Q416 240 304 406T192 848Q192 1112 358 1330T832 1548Q1140 1548 1306 1338T1472 848Q1472 572 1360 406T1128 196H1576V0H940V180Q1112 272 1200 432T1288 836Q1288 1044 1162 1210T832 1376Z"/><glyph unicode="∂" horiz-adv-x="1280" d="M476 -32Q276 -32 166 80T56 360Q56 580 214 750T604 920Q700 920 802 886T964 816Q976 900 976 984Q976 1172 908 1278T720 1384Q592 1384 518 1356T368 1280L324 1444Q400 1488 492 1518T720 1548Q956 1548 1064 1394T1172 968Q1172 552 968 260T476 -32ZM488 128Q660 128 774 268T944 684Q912 716 824 748T648 780Q456 780 360 654T264 372Q264 264 318 196T488 128Z"/><glyph unicode="∆" horiz-adv-x="1536" d="M76 0L652 1536H884L1456 0H76ZM352 148H1164L752 1256L352 148Z"/><glyph unicode="∏" horiz-adv-x="1536" d="M332 0V1348H80V1524H1456V1348H1212V0H1004V1356H540V0H332Z"/><glyph unicode="∑" horiz-adv-x="1152" d="M1084 1524V1344H332L796 784L304 188H1080V0H40V172L560 788L68 1380V1524H1084Z"/><glyph unicode="−" horiz-adv-x="1536" d="M200 692V888H1336V692H200Z"/><glyph unicode="∕" horiz-adv-x="860" d="M967 1434L170 0H-106L690 1434H967Z"/><glyph unicode="∙" horiz-adv-x="504" d="M422 752Q422 717 409 686T372 632T317 596T252 582Q217 582 187 595T133 632T96 686T82 752Q82 786 95 817T132 871T186 908T252 922Q286 922 317 909T371 872T408 817T422 752Z"/><glyph unicode="√" horiz-adv-x="1073" d="M1042 1434L569 0H297L45 696H305L365 496Q374 464 384 430T403 361T419 295T432 238Q439 266 448 299T468 368T488 438T508 504L791 1434H1042Z"/><glyph unicode="∞" horiz-adv-x="1536" d="M468 1216Q616 1216 706 1134T848 840Q856 660 920 608T1072 556Q1156 556 1218 626T1280 816Q1280 916 1234 988T1080 1060Q972 1060 920 968T836 752Q796 596 688 496T440 396Q284 396 190 508T96 808Q96 984 208 1100T468 1216ZM1072 396Q924 396 840 482T712 764Q672 924 614 986T472 1048Q376 1048 316 982T256 792Q256 668 302 610T448 552Q540 552 608 624T716 864Q764 1044 860 1130T1100 1216Q1248 1216 1346 1112T1444 820Q1444 640 1340 518T1072 396Z"/><glyph unicode="∫" horiz-adv-x="1152" d="M-8 -392L56 -260Q80 -268 104 -274T164 -280Q212 -280 242 -246T288 -112L516 1224Q544 1384 636 1464T880 1544Q972 1544 1042 1522T1152 1476L1088 1304Q1044 1332 988 1356T868 1380Q776 1380 730 1322T672 1188L448 -224Q428 -332 350 -382T176 -432Q116 -432 66 -420T-8 -392Z"/><glyph unicode="≈" horiz-adv-x="1536" d="M236 400Q228 444 228 480Q228 580 288 652T476 724Q576 724 650 696T788 642T912 598T1020 580Q1096 580 1128 610T1160 684Q1160 700 1156 716H1300Q1308 672 1308 636Q1308 536 1248 464T1060 392Q960 392 886 418T748 470T624 512T516 528Q440 528 408 500T376 432Q376 416 380 400H236ZM236 860Q228 904 228 940Q228 1040 288 1112T476 1184Q576 1184 650 1156T788 1102T912 1058T1020 1040Q1096 1040 1128 1070T1160 1144Q1160 1160 1156 1176H1300Q1308 1132 1308 1096Q1308 996 1248 924T1060 852Q960 852 886 878T748 930T624 972T516 988Q440 988 408 960T376 892Q376 876 380 860H236Z"/><glyph unicode="≠" horiz-adv-x="1536" d="M212 404V604H1328V404H212ZM212 976V1176H1328V976H212ZM548 188H372L996 1356H1168L548 188Z"/><glyph unicode="≤" horiz-adv-x="1536" d="M1348 236L208 708V872L1348 1344V1128L448 792L1348 452V236ZM212 24V216H1348V24H212Z"/><glyph unicode="≥" horiz-adv-x="1536" d="M212 236V452L1112 792L212 1128V1344L1352 872V708L212 236ZM212 24V216H1348V24H212Z"/><glyph unicode="◊" horiz-adv-x="1152" d="M472 -48L68 756L472 1560H656L1084 756L656 -48H472ZM556 152L876 768L572 1356L252 740L556 152Z"/><glyph unicode="" horiz-adv-x="1577" d="M1536 717L1176 444Q1160 432 1145 433T1122 440Q1107 451 1103 466T1104 504L1133 606H895V373L999 401Q1022 408 1036 404T1061 383Q1067 375 1067 361T1055 330L788 -31L516 330Q504 345 505 360T512 383Q523 398 537 403T575 401L678 373V606H444L473 504Q479 481 475 466T455 440Q447 434 432 433T401 444L41 717L401 983Q418 995 432 995T455 989Q472 978 475 965T473 928L444 823H678V1061L575 1032Q532 1021 512 1051Q506 1059 505 1073T516 1104L788 1464L1055 1104Q1067 1087 1067 1073T1061 1051Q1050 1034 1036 1030T999 1032L895 1061V823H1133L1104 928Q1098 951 1101 964T1122 989Q1130 995 1144 995T1176 983L1536 717Z"/><glyph unicode="ﬁ" horiz-adv-x="1122" d="M1032 1333Q1032 1301 1020 1274T987 1225T938 1192T879 1180Q847 1180 819 1192T770 1225T737 1273T725 1333Q725 1364 737 1392T770 1441T819 1474T879 1487Q910 1487 938 1475T987 1441T1020 1392T1032 1333ZM614 1247Q591 1258 566 1263T506 1268Q455 1268 434 1245T412 1163V1075H584V846H412V0H170V846H61V1075H170V1204Q170 1279 190 1332T246 1420T330 1471T432 1487Q495 1487 537 1480T614 1456V1247ZM999 0H758V1075H999V0Z"/><glyph unicode="ﬂ" horiz-adv-x="1122" d="M999 0H758V1372L999 1493V0ZM614 1247Q591 1258 566 1263T506 1268Q455 1268 434 1245T412 1163V1075H584V846H412V0H170V846H61V1075H170V1204Q170 1279 190 1332T246 1420T330 1471T432 1487Q495 1487 537 1480T614 1456V1247Z"/></font>
</defs>
</svg>
